<?xml version="1.0" encoding="utf-8"?>
<!-- Generator: Adobe Illustrator 27.5.0, SVG Export Plug-In . SVG Version: 6.00 Build 0)  -->
<svg version="1.1" xmlns="http://www.w3.org/2000/svg" xmlns:xlink="http://www.w3.org/1999/xlink" x="0px" y="0px"
	 viewBox="0 0 500 500" style="enable-background:new 0 0 500 500;" xml:space="preserve">
<g id="BACKGROUND">
	<rect style="fill:#FFFFFF;" width="500" height="500"/>
</g>
<g id="OBJECTS">
	<g>
		<g style="opacity:0.1;">
			<path style="fill:#320032;" d="M435.963,209.103c1.13,0,2.045-0.916,2.045-2.045v-91.854c0-1.13-0.916-2.045-2.045-2.045h-49.172
				v-36.49c0-1.13-0.916-2.045-2.045-2.045h-29.217v-4.851c0-0.997-0.808-1.805-1.805-1.805h-45.886
				c-0.593-8.277-7.492-14.81-15.921-14.81c-8.429,0-15.327,6.532-15.921,14.81H230.11c-0.997,0-1.805,0.808-1.805,1.805v4.851
				h-29.217c-1.13,0-2.045,0.916-2.045,2.045v228.948c0,1.13,0.916,2.045,2.045,2.045h18.759v2.675c0,1.13,0.916,2.045,2.045,2.045
				h216.072c1.13,0,2.045-0.916,2.045-2.045v-91.854c0-1.13-0.916-2.045-2.045-2.045h-49.172v-7.334H435.963z"/>
			<path style="fill:#320032;" d="M435.963,319.716H219.891c-1.13,0-2.045,0.916-2.045,2.045v91.854c0,1.13,0.916,2.045,2.045,2.045
				h216.072c1.13,0,2.045-0.916,2.045-2.045v-91.854C438.009,320.632,437.093,319.716,435.963,319.716z"/>
		</g>
		<ellipse style="opacity:0.1;fill:#320032;" cx="151.319" cy="461.738" rx="65.768" ry="12.262"/>
		<g>
			<path style="fill:#B5705B;" d="M378.696,302.419H196.749c-2.155,0-3.901-1.747-3.901-3.901V73.281
				c0-2.155,1.747-3.901,3.901-3.901h181.947c2.155,0,3.901,1.747,3.901,3.901v225.237
				C382.597,300.673,380.85,302.419,378.696,302.419z"/>
			<path style="fill:#F9F2FF;" d="M367.057,290.436h-158.67c-2.155,0-3.901-1.747-3.901-3.901V101.743
				c0-2.155,1.747-3.901,3.901-3.901h158.67c2.155,0,3.901,1.747,3.901,3.901v184.792
				C370.958,288.69,369.212,290.436,367.057,290.436z"/>
			<path style="fill:#213150;" d="M349.529,62.724h-45.886c-0.593-8.278-7.492-14.81-15.921-14.81s-15.327,6.532-15.921,14.81
				h-45.886c-0.997,0-1.805,0.808-1.805,1.806v18.141c0,0.997,0.808,1.806,1.805,1.806h123.613c0.997,0,1.805-0.808,1.805-1.806
				V64.53C351.334,63.533,350.526,62.724,349.529,62.724z"/>
		</g>
		<g>
			<path style="fill:#8A8299;" d="M217.553,203.86h212.361c2.155,0,3.901-1.747,3.901-3.901v-88.143
				c0-2.154-1.747-3.901-3.901-3.901H217.553c-2.155,0-3.901,1.747-3.901,3.901v88.143
				C213.652,202.114,215.398,203.86,217.553,203.86z"/>
			<path style="fill:#F9F2FF;" d="M224.248,196.811h198.971c2.155,0,3.901-1.747,3.901-3.901v-74.044
				c0-2.154-1.746-3.901-3.901-3.901H224.248c-2.155,0-3.901,1.747-3.901,3.901v74.044
				C220.347,195.064,222.093,196.811,224.248,196.811z"/>
			<g>
				<path style="fill:#FFB8B8;" d="M336.155,154.75h-33.068c-1.242,0-2.249-1.061-2.249-2.369l0,0c0-1.308,1.007-2.369,2.249-2.369
					h33.068c1.242,0,2.249,1.06,2.249,2.369l0,0C338.404,153.689,337.397,154.75,336.155,154.75z"/>
				<path style="fill:#FFB8B8;" d="M421.596,154.75h-40.302c-0.704,0-1.275-1.06-1.275-2.369l0,0c0-1.308,0.571-2.369,1.275-2.369
					h40.302c0.704,0,1.275,1.061,1.275,2.369l0,0C422.871,153.689,422.301,154.75,421.596,154.75z"/>
				<path style="fill:#FFB8B8;" d="M374.961,154.75h-28.856c-0.504,0-0.913-1.06-0.913-2.369l0,0c0-1.308,0.409-2.369,0.913-2.369
					h28.856c0.504,0,0.913,1.061,0.913,2.369l0,0C375.875,153.689,375.466,154.75,374.961,154.75z"/>
				<path style="fill:#FFB8B8;" d="M420.623,165.884H302.968c-1.242,0-2.249-1.061-2.249-2.369l0,0c0-1.308,1.007-2.368,2.249-2.368
					h117.655c1.242,0,2.249,1.06,2.249,2.368l0,0C422.871,164.823,421.865,165.884,420.623,165.884z"/>
				<path style="fill:#FFB8B8;" d="M336.18,188.152h-33.886c-0.814,0-1.474-1.061-1.474-2.369l0,0c0-1.308,0.66-2.369,1.474-2.369
					h33.886c0.814,0,1.474,1.061,1.474,2.369l0,0C337.654,187.091,336.994,188.152,336.18,188.152z"/>
				<path style="fill:#FFB8B8;" d="M379.323,188.152h-33.886c-0.814,0-1.474-1.061-1.474-2.369l0,0c0-1.308,0.66-2.369,1.474-2.369
					h33.886c0.814,0,1.474,1.061,1.474,2.369l0,0C380.797,187.091,380.137,188.152,379.323,188.152z"/>
				<path style="fill:#FFB8B8;" d="M420.623,177.018H302.968c-1.242,0-2.249-1.06-2.249-2.369l0,0c0-1.308,1.007-2.369,2.249-2.369
					h117.655c1.242,0,2.249,1.06,2.249,2.369l0,0C422.871,175.958,421.865,177.018,420.623,177.018z"/>
				<path style="fill:#FFB8B8;" d="M345.158,132.482h33.751c0.811,0,1.468-1.061,1.468-2.369l0,0c0-1.308-0.657-2.369-1.468-2.369
					h-33.751c-0.811,0-1.468,1.061-1.468,2.369l0,0C343.69,131.421,344.347,132.482,345.158,132.482z"/>
				<path style="fill:#FFB8B8;" d="M302.187,132.482h33.751c0.811,0,1.468-1.061,1.468-2.369l0,0c0-1.308-0.657-2.369-1.468-2.369
					h-33.751c-0.811,0-1.468,1.061-1.468,2.369l0,0C300.719,131.421,301.376,132.482,302.187,132.482z"/>
				<path style="fill:#FFB8B8;" d="M302.187,143.616h76.799c0.811,0,1.468-1.061,1.468-2.369l0,0c0-1.308-0.657-2.369-1.468-2.369
					h-76.799c-0.811,0-1.468,1.061-1.468,2.369l0,0C300.719,142.555,301.376,143.616,302.187,143.616z"/>
			</g>
			<g>
				<path style="fill:#B5705B;" d="M230.124,153.932c0.117-0.905,0.533-1.766,1.152-2.434c0.603-0.652,1.42-1.125,2.313-1.213
					c1.157-0.113,2.256,0.382,3.251,0.915c0.018,0.01,0.035,0.02,0.053,0.03c0.668-1.648,1.13-3.383,1.408-5.143
					c0.272-1.725,0.377-3.476,0.343-5.221c-0.036-1.878-0.273-3.736-0.496-5.598c-0.231-1.93-0.435-3.883-0.275-5.827
					c0.139-1.695,0.583-3.341,1.403-4.835c1.465-2.67,3.985-4.757,6.874-5.716c3.046-1.012,6.429-0.807,9.388,0.408
					c-0.304-0.323-0.591-0.662-0.855-1.019c-0.397-0.537-0.859-1.223-0.728-1.93c0.132-0.711,0.907-0.938,1.507-0.639
					c0.612,0.306,0.912,1.017,1.121,1.653c0.088-0.292,0.199-0.578,0.336-0.851c0.158-0.315,0.339-0.653,0.586-0.907
					c0.524-0.538,1.26-0.036,1.287,0.623c0.016,0.402-0.165,0.778-0.335,1.132c-0.173,0.36-0.36,0.715-0.559,1.062
					c-0.15,0.262-0.31,0.517-0.475,0.77c0.85-0.557,1.776-0.998,2.747-1.306c1.738-0.551,3.595-0.659,5.384-0.307
					c1.863,0.367,3.644,1.15,5.249,2.157c1.458,0.915,2.783,2.044,3.924,3.333c0.573,0.647,1.1,1.336,1.575,2.058
					c1.327,0.312,2.577,0.958,3.59,1.878c1.77,1.608,2.574,3.919,2.692,6.264c0.133,2.624-0.501,5.174-1.146,7.696
					c-0.701,2.742-1.37,5.526-1.051,8.376c0.11,0.981,0.322,1.95,0.623,2.89c0.607-0.085,1.236-0.058,1.816,0.038
					c1.342,0.223,2.618,0.853,3.569,1.833c1.895,1.952,2.166,5.272,0.248,7.303c-0.887,0.939-2.152,1.525-3.446,1.528
					c0.016,0.179,0.026,0.358,0.025,0.537c-0.013,2.152-1.373,3.968-3.03,5.22c-0.907,0.686-1.912,1.234-2.948,1.697
					c-1.117,0.499-2.276,0.905-3.458,1.222c-2.367,0.634-4.827,0.901-7.275,0.851c-1.399-0.029-2.795-0.165-4.176-0.395
					c-1.022,0.529-2.086,0.978-3.181,1.332c-2.607,0.844-5.372,1.192-8.106,1.019c-2.747-0.174-5.467-0.882-7.919-2.139
					c-1.362-0.699-2.653-1.559-3.724-2.66c-0.993-1.021-1.743-2.238-2.174-3.597c-0.461-1.453-0.562-3.021-0.311-4.527
					c-0.708-0.12-1.404-0.322-2.064-0.605c-1.828-0.782-3.429-2.189-4.249-4.022C230.199,155.952,229.995,154.931,230.124,153.932z"
					/>
				<path style="fill:#39354D;" d="M292.154,196.796c-0.36-2.077-0.837-4.125-1.44-6.126c-2.041-6.768-5.523-12.997-10.796-17.983
					c-11.883-11.235-28.935-10.478-40.397,1.037c-6.253,6.282-10.476,14.436-12.52,23.072H292.154z"/>
				<path style="fill:#F0626E;" d="M264.601,189.985c-0.137-0.643-0.274-1.285-0.411-1.928c-0.271-1.273-0.542-2.546-0.813-3.819
					l-0.817-3.838c-0.165-0.777-0.331-1.553-0.496-2.33c0.046,0.003,0.098-0.005,0.128-0.026l1.256-0.853
					c0.186-0.126,0.372-0.253,0.558-0.379c0.169-0.115,0.38-0.229,0.5-0.361c0.106-0.116,0.084-0.233-0.013-0.348
					c-0.116-0.138-0.274-0.269-0.414-0.401c-0.587-0.556-1.175-1.111-1.762-1.667c-0.02-0.018-0.049-0.027-0.08-0.029
					c-0.013-0.003-0.029-0.005-0.046-0.005c-0.972,0.007-1.943,0.013-2.915,0.02c-0.019,0-0.035,0.002-0.05,0.006
					c-0.049-0.027-0.141-0.034-0.184,0.008c-0.587,0.556-1.175,1.111-1.762,1.667c-0.14,0.132-0.297,0.263-0.414,0.401
					c-0.098,0.115-0.12,0.232-0.014,0.348c0.12,0.131,0.331,0.246,0.5,0.361c0.186,0.126,0.372,0.253,0.558,0.379l1.256,0.853
					c0.03,0.02,0.082,0.029,0.128,0.026c-0.165,0.777-0.331,1.553-0.496,2.33l-0.817,3.838c-0.271,1.273-0.542,2.546-0.813,3.819
					c-0.137,0.643-0.274,1.285-0.411,1.928c-0.128,0.599-0.269,1.21,0.074,1.798c0.327,0.56,0.953,1.07,1.496,1.58
					c0.595,0.559,1.19,1.118,1.785,1.677c0.152,0.142,0.303,0.285,0.455,0.427c0.026,0.025,0.071,0.032,0.112,0.028
					c0.042,0.004,0.086-0.003,0.112-0.028c0.152-0.143,0.303-0.285,0.455-0.427c0.595-0.559,1.19-1.118,1.785-1.677
					c0.543-0.51,1.169-1.02,1.496-1.58C264.869,191.195,264.728,190.584,264.601,189.985z"/>
				<path style="fill:#F2F2F2;" d="M269.832,169.241c-0.061-1.978-0.649-4.177-2.202-5.517c-0.856-0.739-1.905-1.032-3.015-1.125
					c-2.635-0.221-5.332-0.221-7.968,0c-1.109,0.093-2.159,0.387-3.015,1.125c-1.553,1.34-2.141,3.539-2.202,5.517
					c-0.07,2.268,0.622,4.597,2.302,6.185c1.427,1.348,4.104,2.478,5.633,0.679c0.651-0.766,0.999-1.773,1.265-2.738
					c0.266,0.965,0.614,1.972,1.265,2.738c1.529,1.799,4.206,0.669,5.633-0.679C269.21,173.838,269.901,171.508,269.832,169.241z"/>
				<path style="fill:#FFBAA6;" d="M244.566,142.071c-0.043-0.182-0.092-0.363-0.148-0.542c-0.436-1.405-1.267-2.703-2.484-3.518
					c-4.073-2.731-8.344,1.863-7.059,6.034c0.716,2.324,3.095,4.023,5.526,3.946c1.509-0.048,3.042-0.788,3.798-2.096
					C244.857,144.76,244.867,143.348,244.566,142.071z"/>
				<path style="opacity:0.4;fill:#320032;" d="M241.811,143.773c-2.289,0.785-5.129,0.26-7.164-1.207
					c0.007,0.49,0.078,0.987,0.23,1.479c0.716,2.324,3.095,4.023,5.526,3.946c1.509-0.048,3.042-0.788,3.798-2.096
					c0.623-1.077,0.663-2.401,0.409-3.624C243.755,142.906,242.825,143.425,241.811,143.773z"/>
				<path style="fill:#FFBAA6;" d="M273.96,142.071c0.043-0.182,0.092-0.363,0.148-0.542c0.436-1.405,1.267-2.703,2.483-3.518
					c4.073-2.731,8.344,1.863,7.059,6.034c-0.716,2.324-3.095,4.023-5.526,3.946c-1.509-0.048-3.042-0.788-3.798-2.096
					C273.669,144.76,273.659,143.348,273.96,142.071z"/>
				<path style="opacity:0.4;fill:#320032;" d="M276.715,143.773c2.289,0.785,5.129,0.26,7.164-1.207
					c-0.007,0.49-0.078,0.987-0.23,1.479c-0.716,2.324-3.095,4.023-5.526,3.946c-1.509-0.048-3.042-0.788-3.798-2.096
					c-0.623-1.077-0.663-2.401-0.409-3.624C274.77,142.906,275.701,143.425,276.715,143.773z"/>
				<path style="fill:#FFBAA6;" d="M265.224,153.87c-3.194,1.278-6.838,1.119-10.331,0.155c-0.458,3.956-0.657,7.951-0.625,11.94
					c0.019,2.322,0.278,4.841,1.616,6.505c1.398,1.737,3.658,2.069,5.609,1.518c1.628-0.46,3.225-1.557,3.987-3.357
					c0.542-1.282,0.609-2.776,0.601-4.216c-0.003-0.595-0.015-1.189-0.035-1.783C265.924,161.04,265.556,157.45,265.224,153.87z"/>
				<path style="opacity:0.4;fill:#320032;" d="M265.224,153.87c-3.193,1.277-6.837,1.12-10.329,0.155
					c-0.318,2.752-0.512,5.522-0.589,8.296c2.846,3.724,7.388,4.532,11.768,3.546c-0.006-0.412-0.015-0.824-0.029-1.236
					C265.924,161.04,265.556,157.45,265.224,153.87z"/>
				<path style="fill:#FFBAA6;" d="M241.554,141.422c-0.007,0.289-0.011,0.579-0.011,0.868c-0.007,3.772,0.545,7.662,2.541,10.908
					c3.096,5.033,9.327,7.746,15.398,7.934c4.416,0.137,9.013-0.991,12.316-3.818c5.032-4.306,6.071-11.488,5.712-17.962
					c-0.44-7.94-4.924-15.973-13.792-17.31c-8.054-1.214-16.747,2.259-20.139,9.622
					C242.172,134.715,241.635,138.077,241.554,141.422z"/>
				<path style="fill:#B5705B;" d="M277.156,136.133c-1.271-6.88-5.675-13.184-13.439-14.354
					c-8.054-1.214-16.747,2.259-20.139,9.621c-0.583,1.267-1.015,2.587-1.329,3.937c2.613-0.265,5.239-0.395,7.87-0.362
					c0.615,0.008,1.23,0.015,1.847,0.022c0.058-2.102,0.397-4.191,1.004-6.206c0.319-1.058,0.714-2.092,1.173-3.097
					c-0.271,1.563-0.465,3.139-0.579,4.721c-0.11,1.53-0.143,3.065-0.103,4.598c3.142,0.035,6.299,0.076,9.453,0.187
					c0.367-1.806,0.657-3.627,0.866-5.457c0.143,1.13,0.278,2.261,0.397,3.395c0.074,0.706,0.141,1.413,0.204,2.12
					c0.664,0.028,1.328,0.061,1.991,0.096c0.017-0.156,0.032-0.311,0.046-0.467c0.105-1.133,0.14-2.273,0.122-3.411
					c-0.011-0.683-0.042-1.365-0.087-2.047c0.368,1.176,0.704,2.362,1.007,3.557c0.208,0.818,0.398,1.641,0.575,2.467
					c2.975,0.194,5.936,0.481,8.868,0.916C276.998,136.304,277.082,136.225,277.156,136.133z"/>
			</g>
			<g>
				<path style="fill:#213150;" d="M411.531,142.318h-17.554c-3.584,0-6.489-2.905-6.489-6.489v-7.777
					c0-3.584,2.905-6.489,6.489-6.489h17.554c3.584,0,6.489,2.905,6.489,6.489v7.777
					C418.02,139.413,415.115,142.318,411.531,142.318z"/>
				<path style="fill:#F9F2FF;" d="M408.386,125.346c-2.84,3.158-5.787,6.255-8.808,9.311c-0.871-1.105-1.847-2.152-2.955-3.151
					c-1.762-1.59-4.727,0.714-2.975,2.295c1.581,1.426,2.793,2.954,3.809,4.653c0.525,0.877,2.513,1.113,3.305,0.329
					c3.89-3.856,7.649-7.784,11.259-11.798C413.566,125.264,409.921,123.64,408.386,125.346z"/>
			</g>
		</g>
		<g>
			<path style="fill:#8A8299;" d="M217.553,410.418h212.361c2.155,0,3.901-1.747,3.901-3.901v-88.142
				c0-2.155-1.747-3.901-3.901-3.901H217.553c-2.155,0-3.901,1.747-3.901,3.901v88.142
				C213.652,408.672,215.398,410.418,217.553,410.418z"/>
			<path style="fill:#F9F2FF;" d="M224.248,403.369h198.971c2.155,0,3.901-1.747,3.901-3.901v-74.044
				c0-2.155-1.746-3.901-3.901-3.901H224.248c-2.155,0-3.901,1.747-3.901,3.901v74.044
				C220.347,401.623,222.093,403.369,224.248,403.369z"/>
			<g>
				<path style="fill:#FFB8B8;" d="M336.155,361.308h-33.068c-1.242,0-2.249-1.06-2.249-2.369l0,0c0-1.308,1.007-2.369,2.249-2.369
					h33.068c1.242,0,2.249,1.06,2.249,2.369l0,0C338.404,360.248,337.397,361.308,336.155,361.308z"/>
				<path style="fill:#FFB8B8;" d="M421.596,361.308h-40.302c-0.704,0-1.275-1.06-1.275-2.369l0,0c0-1.308,0.571-2.369,1.275-2.369
					h40.302c0.704,0,1.275,1.061,1.275,2.369l0,0C422.871,360.248,422.301,361.308,421.596,361.308z"/>
				<path style="fill:#FFB8B8;" d="M374.961,361.308h-28.856c-0.504,0-0.913-1.06-0.913-2.369l0,0c0-1.308,0.409-2.369,0.913-2.369
					h28.856c0.504,0,0.913,1.061,0.913,2.369l0,0C375.875,360.248,375.466,361.308,374.961,361.308z"/>
				<path style="fill:#FFB8B8;" d="M420.623,372.442H302.968c-1.242,0-2.249-1.06-2.249-2.369l0,0c0-1.308,1.007-2.369,2.249-2.369
					h117.655c1.242,0,2.249,1.061,2.249,2.369l0,0C422.871,371.382,421.865,372.442,420.623,372.442z"/>
				<path style="fill:#FFB8B8;" d="M336.18,394.71h-33.886c-0.814,0-1.474-1.061-1.474-2.369l0,0c0-1.308,0.66-2.369,1.474-2.369
					h33.886c0.814,0,1.474,1.06,1.474,2.369l0,0C337.654,393.65,336.994,394.71,336.18,394.71z"/>
				<path style="fill:#FFB8B8;" d="M379.323,394.71h-33.886c-0.814,0-1.474-1.061-1.474-2.369l0,0c0-1.308,0.66-2.369,1.474-2.369
					h33.886c0.814,0,1.474,1.06,1.474,2.369l0,0C380.797,393.65,380.137,394.71,379.323,394.71z"/>
				<path style="fill:#FFB8B8;" d="M420.623,383.576H302.968c-1.242,0-2.249-1.061-2.249-2.369l0,0c0-1.308,1.007-2.369,2.249-2.369
					h117.655c1.242,0,2.249,1.061,2.249,2.369l0,0C422.871,382.516,421.865,383.576,420.623,383.576z"/>
				<path style="fill:#FFB8B8;" d="M345.158,339.04h33.751c0.811,0,1.468-1.06,1.468-2.369l0,0c0-1.308-0.657-2.369-1.468-2.369
					h-33.751c-0.811,0-1.468,1.06-1.468,2.369l0,0C343.69,337.98,344.347,339.04,345.158,339.04z"/>
				<path style="fill:#FFB8B8;" d="M302.187,339.04h33.751c0.811,0,1.468-1.06,1.468-2.369l0,0c0-1.308-0.657-2.369-1.468-2.369
					h-33.751c-0.811,0-1.468,1.06-1.468,2.369l0,0C300.719,337.98,301.376,339.04,302.187,339.04z"/>
				<path style="fill:#FFB8B8;" d="M302.187,350.174h76.799c0.811,0,1.468-1.06,1.468-2.369l0,0c0-1.308-0.657-2.369-1.468-2.369
					h-76.799c-0.811,0-1.468,1.06-1.468,2.369l0,0C300.719,349.114,301.376,350.174,302.187,350.174z"/>
			</g>
			<g>
				<path style="fill:#F0626E;" d="M411.775,348.68H394.22c-3.584,0-6.489-2.905-6.489-6.489v-7.777
					c0-3.584,2.905-6.489,6.489-6.489h17.554c3.584,0,6.489,2.905,6.489,6.489v7.777C418.263,345.775,415.358,348.68,411.775,348.68
					z"/>
			</g>
			<g>
				<path style="fill:#FFCBBF;" d="M273.96,348.923c0.043-0.182,0.092-0.363,0.148-0.542c0.436-1.404,1.267-2.703,2.483-3.518
					c4.073-2.731,8.344,1.863,7.059,6.033c-0.716,2.324-3.095,4.023-5.526,3.946c-1.509-0.048-3.042-0.788-3.798-2.096
					C273.669,351.612,273.659,350.2,273.96,348.923z"/>
				<path style="opacity:0.4;fill:#320032;" d="M276.715,350.625c2.289,0.785,5.129,0.26,7.164-1.207
					c-0.007,0.49-0.078,0.987-0.23,1.479c-0.716,2.324-3.095,4.023-5.526,3.946c-1.509-0.048-3.042-0.788-3.798-2.095
					c-0.623-1.077-0.663-2.401-0.409-3.624C274.77,349.758,275.701,350.277,276.715,350.625z"/>
				<path style="fill:#39354D;" d="M292.154,403.649c-0.36-2.077-0.837-4.125-1.44-6.126c-2.041-6.768-5.523-12.997-10.796-17.983
					c-11.883-11.235-28.935-10.478-40.397,1.037c-6.253,6.282-10.476,14.436-12.52,23.072H292.154z"/>
				<path style="fill:#FFB8B8;" d="M263.917,397.878c-0.137-0.643-0.274-1.285-0.411-1.928c-0.271-1.273-0.542-2.546-0.813-3.819
					l-0.817-3.837c-0.165-0.777-0.331-1.553-0.496-2.33c0.046,0.003,0.098-0.005,0.128-0.025l1.256-0.853
					c0.186-0.126,0.372-0.253,0.558-0.379c0.169-0.115,0.38-0.229,0.5-0.36c0.106-0.116,0.084-0.233-0.013-0.348
					c-0.117-0.138-0.274-0.269-0.414-0.401c-0.587-0.556-1.175-1.111-1.762-1.667c-0.02-0.019-0.049-0.027-0.08-0.029
					c-0.013-0.003-0.029-0.005-0.046-0.004c-0.972,0.007-1.943,0.013-2.915,0.02c-0.019,0-0.035,0.002-0.05,0.006
					c-0.048-0.027-0.141-0.034-0.184,0.008c-0.587,0.556-1.175,1.111-1.762,1.667c-0.14,0.132-0.297,0.263-0.414,0.401
					c-0.098,0.115-0.12,0.232-0.014,0.348c0.12,0.131,0.331,0.246,0.5,0.36c0.186,0.126,0.372,0.253,0.558,0.379l1.256,0.853
					c0.03,0.02,0.082,0.029,0.128,0.025c-0.165,0.777-0.331,1.553-0.496,2.33l-0.817,3.837c-0.271,1.273-0.542,2.546-0.813,3.819
					c-0.137,0.643-0.274,1.285-0.411,1.928c-0.127,0.599-0.269,1.21,0.074,1.798c0.327,0.56,0.953,1.07,1.496,1.58
					c0.595,0.559,1.19,1.118,1.785,1.677c0.152,0.143,0.303,0.285,0.455,0.427c0.027,0.025,0.071,0.032,0.112,0.028
					c0.042,0.004,0.086-0.003,0.112-0.028c0.152-0.143,0.303-0.285,0.455-0.427c0.595-0.559,1.19-1.118,1.785-1.677
					c0.543-0.51,1.169-1.02,1.496-1.58C264.186,399.087,264.045,398.477,263.917,397.878z"/>
				<path style="fill:#F2F2F2;" d="M272.436,374.776c-0.876-2.254-4.139-3.423-6.28-3.943c-3.435-0.835-7.096-0.845-10.574-0.277
					c-2.603,0.425-8.717,2.486-7.588,5.97c0.993,3.064,2.852,5.961,5.412,8.433c1.057,1.021,3.468,2.737,4.303,0.632
					c0.688-1.735,1.32-3.484,1.895-5.243c0.163-0.5,0.322-1,0.476-1.501c0.025-0.082,0.05-0.165,0.075-0.248
					c0.025,0.083,0.049,0.166,0.075,0.248c0.154,0.501,0.313,1.002,0.476,1.501c0.575,1.759,1.207,3.508,1.895,5.243
					c0.834,2.105,3.246,0.389,4.303-0.632c2.56-2.472,4.419-5.369,5.412-8.433C272.501,375.952,272.656,375.343,272.436,374.776z"/>
				<path style="fill:#FFCBBF;" d="M244.566,348.923c-0.043-0.182-0.092-0.363-0.148-0.542c-0.436-1.404-1.267-2.703-2.483-3.518
					c-4.073-2.731-8.344,1.863-7.059,6.033c0.716,2.324,3.095,4.023,5.526,3.946c1.509-0.048,3.042-0.788,3.798-2.096
					C244.857,351.612,244.867,350.2,244.566,348.923z"/>
				<path style="opacity:0.4;fill:#320032;" d="M241.811,350.625c-2.289,0.785-5.129,0.26-7.164-1.207
					c0.007,0.49,0.078,0.987,0.23,1.479c0.716,2.324,3.095,4.023,5.526,3.946c1.509-0.048,3.042-0.788,3.798-2.095
					c0.623-1.077,0.663-2.401,0.409-3.624C243.755,349.758,242.825,350.277,241.811,350.625z"/>
				<path style="fill:#FFCBBF;" d="M265.224,361.502c-3.194,1.278-6.838,1.119-10.331,0.155c-0.458,3.956-0.657,7.951-0.625,11.94
					c0.019,2.322,0.278,4.842,1.616,6.505c1.398,1.737,3.658,2.069,5.609,1.518c1.628-0.46,3.225-1.557,3.987-3.357
					c0.542-1.282,0.609-2.776,0.601-4.216c-0.003-0.595-0.015-1.189-0.035-1.783C265.924,368.672,265.556,365.082,265.224,361.502z"
					/>
				<path style="opacity:0.4;fill:#320032;" d="M265.224,361.502c-3.193,1.277-6.837,1.12-10.329,0.155
					c-0.318,2.752-0.512,5.522-0.589,8.296c2.846,3.724,7.388,4.532,11.768,3.546c-0.006-0.412-0.014-0.824-0.028-1.236
					C265.924,368.672,265.556,365.082,265.224,361.502z"/>
				<path style="fill:#FFCBBF;" d="M241.554,348.275c-0.007,0.289-0.011,0.579-0.011,0.868c-0.007,3.772,0.545,7.662,2.541,10.908
					c3.096,5.033,9.327,7.746,15.398,7.934c4.416,0.137,9.013-0.991,12.316-3.818c5.032-4.306,6.071-11.488,5.712-17.962
					c-0.44-7.94-4.924-15.973-13.792-17.31c-8.054-1.214-16.747,2.259-20.139,9.621C242.172,341.568,241.635,344.93,241.554,348.275
					z"/>
				<path style="fill:#B5705B;" d="M275.573,353.401c-0.441,0.567-0.681,1.29-0.867,2.005c-0.19,0.731-0.339,1.471-0.586,2.182
					c-0.462,1.331-1.171,2.554-2.055,3.575c-0.912,1.053-2.058,1.997-3.323,2.41c-0.639,0.208-1.318,0.26-1.961,0.047
					c-0.566-0.188-1.101-0.574-1.424-1.142c-0.332-0.584-0.347-1.325-0.695-1.897c-0.386-0.634-1.085-0.786-1.708-0.937
					c-2.51-0.608-4.975-0.608-7.484,0c-0.623,0.151-1.322,0.302-1.707,0.937c-0.348,0.573-0.364,1.314-0.696,1.897
					c-0.323,0.568-0.858,0.954-1.424,1.142c-0.643,0.214-1.322,0.161-1.96-0.047c-1.264-0.413-2.411-1.357-3.323-2.41
					c-0.884-1.021-1.593-2.244-2.055-3.575c-0.247-0.71-0.396-1.451-0.586-2.182c-0.186-0.715-0.426-1.438-0.867-2.005
					c-0.375-0.481-0.888-0.855-1.457-0.941c0.147,3.211,0.789,6.427,2.48,9.176c3.065,4.983,9.235,7.669,15.246,7.856
					c4.372,0.136,8.924-0.982,12.194-3.78c3.822-3.271,5.316-8.218,5.645-13.239C276.42,352.577,275.932,352.939,275.573,353.401z"
					/>
			</g>
		</g>
		<g>
			<path style="fill:#8A8299;" d="M217.553,307.139h212.361c2.155,0,3.901-1.747,3.901-3.901v-88.143
				c0-2.154-1.747-3.901-3.901-3.901H217.553c-2.155,0-3.901,1.747-3.901,3.901v88.143
				C213.652,305.393,215.398,307.139,217.553,307.139z"/>
			<path style="fill:#F9F2FF;" d="M224.248,300.09h198.971c2.155,0,3.901-1.747,3.901-3.901v-74.044
				c0-2.155-1.746-3.901-3.901-3.901H224.248c-2.155,0-3.901,1.747-3.901,3.901v74.044
				C220.347,298.344,222.093,300.09,224.248,300.09z"/>
			<g>
				<path style="fill:#FFB8B8;" d="M336.155,258.029h-33.068c-1.242,0-2.249-1.061-2.249-2.369l0,0c0-1.308,1.007-2.369,2.249-2.369
					h33.068c1.242,0,2.249,1.061,2.249,2.369l0,0C338.404,256.969,337.397,258.029,336.155,258.029z"/>
				<path style="fill:#FFB8B8;" d="M421.596,258.029h-40.302c-0.704,0-1.275-1.061-1.275-2.369l0,0c0-1.308,0.571-2.369,1.275-2.369
					h40.302c0.704,0,1.275,1.061,1.275,2.369l0,0C422.871,256.969,422.301,258.029,421.596,258.029z"/>
				<path style="fill:#FFB8B8;" d="M374.961,258.029h-28.856c-0.504,0-0.913-1.061-0.913-2.369l0,0c0-1.308,0.409-2.369,0.913-2.369
					h28.856c0.504,0,0.913,1.061,0.913,2.369l0,0C375.875,256.969,375.466,258.029,374.961,258.029z"/>
				<path style="fill:#FFB8B8;" d="M420.623,269.163H302.968c-1.242,0-2.249-1.06-2.249-2.369l0,0c0-1.308,1.007-2.369,2.249-2.369
					h117.655c1.242,0,2.249,1.06,2.249,2.369l0,0C422.871,268.103,421.865,269.163,420.623,269.163z"/>
				<path style="fill:#FFB8B8;" d="M336.18,291.431h-33.886c-0.814,0-1.474-1.06-1.474-2.369l0,0c0-1.308,0.66-2.369,1.474-2.369
					h33.886c0.814,0,1.474,1.061,1.474,2.369l0,0C337.654,290.371,336.994,291.431,336.18,291.431z"/>
				<path style="fill:#FFB8B8;" d="M379.323,291.431h-33.886c-0.814,0-1.474-1.06-1.474-2.369l0,0c0-1.308,0.66-2.369,1.474-2.369
					h33.886c0.814,0,1.474,1.061,1.474,2.369l0,0C380.797,290.371,380.137,291.431,379.323,291.431z"/>
				<path style="fill:#FFB8B8;" d="M420.623,280.297H302.968c-1.242,0-2.249-1.06-2.249-2.369l0,0c0-1.308,1.007-2.369,2.249-2.369
					h117.655c1.242,0,2.249,1.06,2.249,2.369l0,0C422.871,279.237,421.865,280.297,420.623,280.297z"/>
				<path style="fill:#FFB8B8;" d="M345.158,235.761h33.751c0.811,0,1.468-1.061,1.468-2.369l0,0c0-1.308-0.657-2.369-1.468-2.369
					h-33.751c-0.811,0-1.468,1.06-1.468,2.369l0,0C343.69,234.701,344.347,235.761,345.158,235.761z"/>
				<path style="fill:#FFB8B8;" d="M302.187,235.761h33.751c0.811,0,1.468-1.061,1.468-2.369l0,0c0-1.308-0.657-2.369-1.468-2.369
					h-33.751c-0.811,0-1.468,1.06-1.468,2.369l0,0C300.719,234.701,301.376,235.761,302.187,235.761z"/>
				<path style="fill:#FFB8B8;" d="M302.187,246.895h76.799c0.811,0,1.468-1.061,1.468-2.369l0,0c0-1.308-0.657-2.369-1.468-2.369
					h-76.799c-0.811,0-1.468,1.06-1.468,2.369l0,0C300.719,245.835,301.376,246.895,302.187,246.895z"/>
			</g>
			<g>
				<g>
					<g>
						<path style="fill:#F0626E;" d="M411.775,245.401H394.22c-3.584,0-6.489-2.905-6.489-6.489v-7.777
							c0-3.584,2.905-6.489,6.489-6.489h17.554c3.584,0,6.489,2.905,6.489,6.489v7.777
							C418.263,242.495,415.358,245.401,411.775,245.401z"/>
					</g>
				</g>
			</g>
			<g>
				<path style="fill:#39354D;" d="M233.223,264.829c0.547-1.697,1.293-3.302,2.15-4.863c0.851-1.549,1.764-3.084,2.331-4.767
					c1.168-3.467,0.534-7.164,0.67-10.741c0.113-2.975,0.658-5.941,1.641-8.753c1.948-5.573,5.749-10.7,11.153-13.309
					c2.89-1.395,6.243-2.044,9.401-1.26c2.152,0.534,4.146,1.802,5.547,3.533c-0.065-0.164-0.129-0.329-0.183-0.496
					c-0.114-0.35-0.192-0.785-0.005-1.125c0.082-0.148,0.236-0.304,0.413-0.321c0.212-0.021,0.37,0.166,0.458,0.337
					c0.131,0.252,0.153,0.538,0.138,0.822c0.089-0.2,0.191-0.395,0.318-0.574c0.142-0.2,0.318-0.4,0.569-0.454
					c0.203-0.044,0.426,0.015,0.548,0.19c0.124,0.178,0.107,0.411,0.043,0.609c-0.16,0.497-0.525,0.964-0.902,1.316
					c-0.005,0.004-0.01,0.008-0.015,0.013c2.124-0.547,4.585,0.435,6.327,1.637c2.373,1.638,4.173,4.094,4.996,6.86
					c0.956,3.209,0.419,6.588,0.234,9.864c-0.095,1.693-0.108,3.414,0.261,5.078c0.365,1.646,1.147,3.1,2.163,4.433
					c0.991,1.299,2.131,2.475,3.128,3.769c1.012,1.312,1.856,2.759,2.406,4.326c1.017,2.895,0.798,5.982-0.473,8.76
					c-1.257,2.748-3.395,5.062-5.932,6.679c-2.852,1.818-6.135,2.838-9.445,3.424c-1.689,0.299-3.397,0.494-5.108,0.623
					c-1.871,0.141-3.751,0.174-5.616-0.057c-1.839-0.228-3.643-0.656-5.466-0.979c-1.897-0.336-3.779-0.48-5.704-0.351
					c-3.438,0.23-6.899,1.01-10.327,0.261c-1.395-0.305-2.751-0.857-3.874-1.751c-1.116-0.888-1.914-2.098-2.365-3.446
					C231.701,271.12,232.279,267.762,233.223,264.829z"/>
				<path style="fill:#F0626E;" d="M292.154,300.37c-0.36-2.077-0.837-4.125-1.44-6.126c-2.041-6.768-5.523-12.997-10.796-17.983
					c-11.883-11.235-28.935-10.478-40.397,1.037c-6.253,6.282-10.476,14.436-12.52,23.072H292.154z"/>
				<path style="fill:#39354D;" d="M264.014,293.559c-0.137-0.643-0.274-1.285-0.411-1.928c-0.271-1.273-0.542-2.546-0.813-3.819
					l-0.817-3.837c-0.165-0.777-0.331-1.553-0.496-2.33c0.046,0.003,0.098-0.005,0.128-0.026l1.256-0.853
					c0.186-0.126,0.372-0.253,0.558-0.379c0.169-0.115,0.38-0.229,0.5-0.361c0.106-0.116,0.084-0.233-0.013-0.348
					c-0.116-0.138-0.274-0.268-0.414-0.401c-0.587-0.556-1.175-1.111-1.762-1.667c-0.02-0.018-0.049-0.027-0.08-0.029
					c-0.013-0.003-0.029-0.005-0.046-0.004c-0.972,0.007-1.943,0.013-2.915,0.02c-0.019,0-0.035,0.002-0.05,0.006
					c-0.048-0.027-0.141-0.034-0.184,0.008c-0.587,0.556-1.175,1.111-1.762,1.667c-0.14,0.132-0.297,0.263-0.414,0.401
					c-0.098,0.115-0.12,0.233-0.014,0.348c0.12,0.131,0.331,0.246,0.5,0.361c0.186,0.126,0.372,0.253,0.558,0.379l1.256,0.853
					c0.03,0.02,0.082,0.029,0.128,0.026c-0.165,0.777-0.331,1.553-0.496,2.33l-0.817,3.837c-0.271,1.273-0.542,2.546-0.813,3.819
					c-0.137,0.643-0.274,1.285-0.411,1.928c-0.128,0.599-0.269,1.21,0.074,1.798c0.327,0.56,0.953,1.07,1.496,1.58
					c0.595,0.559,1.19,1.118,1.785,1.677c0.152,0.142,0.303,0.285,0.455,0.427c0.026,0.025,0.071,0.032,0.112,0.028
					c0.042,0.004,0.086-0.003,0.113-0.028c0.152-0.142,0.303-0.285,0.455-0.427c0.595-0.559,1.19-1.118,1.785-1.677
					c0.543-0.51,1.169-1.02,1.496-1.58C264.282,294.768,264.141,294.158,264.014,293.559z"/>
				<path style="fill:#F2F2F2;" d="M269.245,272.814c-0.061-1.978-0.649-4.177-2.202-5.517c-0.856-0.738-1.905-1.032-3.015-1.125
					c-2.635-0.221-5.332-0.221-7.968,0c-1.109,0.093-2.159,0.387-3.015,1.125c-1.553,1.34-2.141,3.539-2.202,5.517
					c-0.07,2.268,0.622,4.597,2.302,6.185c1.427,1.348,4.104,2.478,5.633,0.679c0.651-0.766,0.999-1.773,1.265-2.738
					c0.266,0.965,0.614,1.972,1.265,2.738c1.529,1.799,4.206,0.669,5.633-0.679C268.623,277.411,269.314,275.082,269.245,272.814z"
					/>
				<path style="fill:#BF8572;" d="M244.566,245.644c-0.043-0.182-0.092-0.363-0.148-0.542c-0.436-1.404-1.267-2.703-2.483-3.518
					c-4.073-2.731-8.344,1.863-7.059,6.033c0.716,2.324,3.095,4.023,5.526,3.946c1.509-0.048,3.042-0.788,3.798-2.096
					C244.857,248.333,244.867,246.921,244.566,245.644z"/>
				<path style="opacity:0.4;fill:#320032;" d="M241.811,247.346c-2.289,0.785-5.129,0.26-7.164-1.207
					c0.007,0.49,0.078,0.987,0.23,1.479c0.716,2.324,3.095,4.023,5.526,3.946c1.509-0.048,3.042-0.788,3.798-2.096
					c0.623-1.077,0.663-2.402,0.409-3.624C243.755,246.479,242.825,246.998,241.811,247.346z"/>
				<path style="fill:#BF8572;" d="M273.96,245.644c0.043-0.182,0.092-0.363,0.148-0.542c0.436-1.404,1.267-2.703,2.483-3.518
					c4.073-2.731,8.344,1.863,7.059,6.033c-0.716,2.324-3.095,4.023-5.526,3.946c-1.509-0.048-3.042-0.788-3.798-2.096
					C273.669,248.333,273.659,246.921,273.96,245.644z"/>
				<path style="opacity:0.4;fill:#320032;" d="M276.715,247.346c2.289,0.785,5.129,0.26,7.164-1.207
					c-0.007,0.49-0.078,0.987-0.23,1.479c-0.716,2.324-3.095,4.023-5.526,3.946c-1.509-0.048-3.042-0.788-3.798-2.096
					c-0.623-1.077-0.663-2.402-0.409-3.624C274.77,246.479,275.701,246.998,276.715,247.346z"/>
				<path style="fill:#BF8572;" d="M265.224,257.443c-3.194,1.278-6.838,1.119-10.331,0.155c-0.458,3.956-0.657,7.951-0.625,11.94
					c0.019,2.322,0.278,4.841,1.616,6.505c1.398,1.738,3.658,2.069,5.609,1.518c1.628-0.46,3.225-1.557,3.987-3.357
					c0.542-1.282,0.609-2.776,0.601-4.216c-0.003-0.595-0.015-1.189-0.035-1.783C265.924,264.613,265.556,261.023,265.224,257.443z"
					/>
				<path style="opacity:0.4;fill:#320032;" d="M265.224,257.443c-3.193,1.277-6.837,1.119-10.329,0.155
					c-0.318,2.752-0.512,5.522-0.589,8.296c2.846,3.724,7.388,4.532,11.768,3.546c-0.006-0.412-0.014-0.824-0.028-1.236
					C265.924,264.613,265.556,261.023,265.224,257.443z"/>
				<path style="fill:#BF8572;" d="M241.554,244.995c-0.007,0.289-0.011,0.579-0.011,0.868c-0.007,3.772,0.545,7.662,2.541,10.908
					c3.096,5.033,9.327,7.746,15.398,7.934c4.416,0.137,9.013-0.991,12.316-3.818c5.032-4.306,6.071-11.488,5.712-17.962
					c-0.44-7.94-4.924-15.973-13.792-17.31c-8.054-1.214-16.747,2.259-20.139,9.621
					C242.172,238.289,241.635,241.651,241.554,244.995z"/>
				<path style="fill:#39354D;" d="M263.717,225.095c-8.054-1.214-16.747,2.259-20.139,9.621c-0.834,1.811-1.361,3.731-1.669,5.692
					c0.407,0.64,1.113,1.006,1.903,0.847c0.94-0.19,1.742-0.924,2.4-1.581c0.659-0.657,1.232-1.398,1.737-2.179
					c0.036-0.056,0.07-0.114,0.105-0.171c-0.077,0.756-0.058,1.61,0.33,2.285c0.898,1.562,2.942,0.429,3.906-0.449
					c0.57-0.519,1.048-1.132,1.486-1.763c0.162-0.232,0.313-0.472,0.467-0.71c0.067,0.303,0.183,0.593,0.371,0.842
					c0.886,1.17,2.48,0.603,3.43-0.157c1.093-0.873,1.894-2.115,2.493-3.363c0.351-0.732,0.643-1.489,0.902-2.257
					c0.004,0.004,0.006,0.009,0.01,0.013c0.553,0.626,1.473,0.594,2.214,0.395c0.812-0.218,1.592-0.607,2.278-1.089
					c0.234-0.164,0.454-0.344,0.668-0.532c0.004,0.008,0.007,0.017,0.011,0.024c0.35,0.639,1.078,0.924,1.781,0.812
					c0.21-0.034,0.412-0.109,0.596-0.215c0.054,0.583,0.107,1.166,0.161,1.749c0.081,0.877,0.145,1.792,0.558,2.587
					c0.349,0.67,1.008,1.213,1.777,1.29c0.585,0.059,1.063-0.22,1.432-0.623c0.125,1.004,0.363,1.993,0.723,2.928
					c0.266,0.69,0.671,1.427,1.337,1.802c0.619,0.348,1.358,0.251,1.889-0.208c0.157-0.136,0.291-0.295,0.409-0.467
					C276.208,233.046,271.771,226.309,263.717,225.095z"/>
			</g>
		</g>
		<g>
			<path style="fill:#8A8299;" d="M180.321,247.613c-1.944-9.996-4.065-19.961-6.279-29.9c-2.199-9.869-4.517-19.711-6.952-29.524
				c0.094-0.157,0.01-0.395-0.176-0.41c-0.121-0.07-0.296-0.024-0.371,0.098c-2.726,0.911-5.501,1.673-8.312,2.272
				c-5.12,1.09-10.349,1.653-15.583,1.685c-0.036,0-0.072,0.001-0.109,0.001c-0.036,0-0.072-0.001-0.109-0.001
				c-5.234-0.033-10.464-0.595-15.583-1.685c-2.812-0.599-5.586-1.361-8.313-2.272c-0.076-0.122-0.25-0.168-0.371-0.098
				c-0.186,0.016-0.27,0.253-0.176,0.41c-2.434,9.813-4.753,19.656-6.951,29.524c-2.214,9.94-4.335,19.904-6.279,29.9
				c-1.9,9.77-3.506,19.831-2.293,29.794c0.112,0.919,0.258,1.891,0.826,2.654c0.563,0.756,1.441,1.096,2.34,1.265
				c2.302,0.433,4.715,0.439,7.049,0.409c4.96-0.063,9.979-0.594,14.902,0.26c5.821,1.01,11.06,5.039,17.106,4.003
				c4.46-0.764,8.326-3.225,12.81-4.003c4.923-0.854,9.942-0.323,14.902-0.26c2.334,0.03,4.747,0.023,7.049-0.409
				c0.899-0.169,1.777-0.509,2.34-1.265c0.568-0.762,0.714-1.734,0.826-2.654C183.827,267.444,182.221,257.383,180.321,247.613z"/>
			<path style="fill:#FFCBBF;" d="M129.493,382.251c3.913-3.859,5.651-9.46,6.75-14.702c1.026-4.896,1.447-9.898,1.653-14.895
				c-0.337-22.425-0.747-44.849-1.082-67.272c-0.127-8.53-2.323-16.174-12.618-17.753c-3.85-0.59-7.803-0.218-11.635,0.475
				c-4.054,0.734-6.694,2.607-7.851,6.669c-2.047,7.189-1.542,14.949-1.203,22.333c1.338,29.176,3.996,58.388,8.291,87.321
				C117.86,386.513,124.484,387.191,129.493,382.251z"/>
			<path style="fill:#D99582;" d="M148.341,285.382c0.127-8.53,2.323-16.174,12.618-17.753c3.85-0.59,7.803-0.218,11.635,0.475
				c4.054,0.734,6.694,2.607,7.851,6.669c2.047,7.189,1.542,14.949,1.203,22.333c-1.834,39.984-6.132,80.039-13.75,119.346
				c-1.651,8.517-3.458,17.004-5.378,25.465c-0.443,1.949-0.958,3.893-1.348,5.853c-0.571,2.871-0.392,2.75,2.143,4.259
				c2.944,1.752,6.013,3.326,8.96,5.06c1.117,0.373,2.264,0.639,3.446,0.751c1.743,0.165,3.469,0.211,5.102,0.916
				c0.83,0.358,4.226,1.982,4.342,2.99c0.361,3.178-17.353,1.609-19.068,1.494c-4.213-0.283-8.423-0.662-12.619-1.135
				c-4.645-0.523-6.105-1.352-6.145-6.368c-0.099-12.275-0.69-24.513-0.69-36.803C146.682,374.416,147.676,329.896,148.341,285.382z
				"/>
			<g>
				<path style="fill:#F2F2F2;" d="M185.66,463.167c0.177-0.626-0.448-1.497-0.73-2.001c-0.603-1.076-1.406-2.03-2.323-2.852
					c-1.822-1.634-4.074-2.762-6.395-3.498c-3.044-0.965-6.224-1.271-9.395-1.134c-0.652-2.032-1.761-3.92-3.234-5.471
					c-0.62-0.652-1.309-1.236-2.045-1.751c-1.714,0.596-3.6,0.814-5.406,0.931c-3.204,0.209-6.16,0-9.266-0.774
					c-0.449,1.523-0.283,3.472-0.332,5.051c-0.06,1.922-0.046,3.846,0.044,5.766c0.042,0.893,0.07,1.799,0.179,2.688
					c0.212,1.725,2.488,2.089,3.862,2.297c2.409,0.365,4.815,0.76,7.234,1.06c5.52,0.686,11.086,0.993,16.648,0.919
					c3.281-0.044,6.561-0.221,9.828-0.531c0.315-0.03,0.641-0.064,0.918-0.216C185.479,463.524,185.606,463.356,185.66,463.167z"/>
				<path style="fill:#4A4A4A;" d="M184.697,460.792c-4.251,0.396-8.52,0.602-12.781,0.654c-5.518,0.068-11.02-0.331-16.458-1.269
					c-2.423-0.418-6.395-0.595-8.856-2.18c0.032,0.71,0.068,1.422,0.154,2.125c0.212,1.725,2.488,2.089,3.862,2.297
					c2.409,0.365,4.816,0.759,7.234,1.06c5.52,0.686,11.086,0.993,16.648,0.919c3.281-0.044,6.561-0.221,9.828-0.531
					c0.315-0.03,0.641-0.064,0.918-0.216c0.233-0.128,0.36-0.295,0.414-0.485c0.177-0.626-0.448-1.497-0.731-2.001
					C184.857,461.037,184.774,460.916,184.697,460.792z"/>
				<circle style="fill:#4A4A4A;" cx="150.708" cy="453.082" r="2.359"/>
				<path style="fill:#4A4A4A;" d="M165.092,447.2c-0.705-0.479-1.608-0.301-2.346-0.005c-0.309,0.124-0.174,0.631,0.139,0.506
					c0.671-0.269,1.574-0.495,2.132,0.119c0.551,0.605-0.026,1.255-0.499,1.678c-1.091,0.976-2.498,1.59-3.953,1.739
					c-0.332,0.034-0.336,0.559,0,0.524c1.4-0.143,2.744-0.657,3.864-1.514c0.503-0.385,1.063-0.842,1.276-1.461
					C165.918,448.168,165.609,447.552,165.092,447.2z"/>
				<path style="fill:#4A4A4A;" d="M167.714,450.346c-0.705-0.479-1.608-0.301-2.346-0.005c-0.309,0.124-0.174,0.631,0.139,0.506
					c0.671-0.269,1.574-0.495,2.133,0.119c0.55,0.605-0.026,1.255-0.499,1.678c-1.091,0.976-2.498,1.59-3.953,1.739
					c-0.333,0.034-0.336,0.559,0,0.524c1.4-0.143,2.744-0.657,3.864-1.514c0.503-0.385,1.063-0.842,1.275-1.461
					C168.539,451.314,168.231,450.697,167.714,450.346z"/>
			</g>
			<path style="fill:#D99582;" d="M52.93,360.84c1.508-3.945,3.107-7.857,4.792-11.729c1.865-4.286,3.086-5.439,7.893-4.004
				c11.763,3.511,23.634,6.541,35.382,10.151c2.648,0.816,5.294,1.642,7.939,2.467c-0.253-1.382-0.495-2.764-0.713-4.151
				c-0.739-4.698-1.326-9.416-2-14.122c-1.301-14.1-2.261-28.227-2.909-42.345c-0.339-7.384-0.844-15.144,1.203-22.333
				c1.157-4.063,3.797-5.936,7.851-6.669c3.832-0.693,7.786-1.065,11.636-0.475c10.294,1.578,12.49,9.222,12.618,17.753
				c0.429,28.724,0.59,57.536-3.345,86.056c-0.231,1.672-0.476,3.351-0.996,4.957c-6.032,18.613-24.773,5.441-35.154-0.09
				c-7.657-4.08-15.239-8.3-22.762-12.621c-1.733-0.996-3.44-2.059-5.199-3.008c-2.577-1.389-2.514-1.183-4.7,0.798
				c-2.539,2.3-4.946,4.771-7.469,7.079c-0.684,0.958-1.276,1.976-1.73,3.073c-0.67,1.618-1.221,3.254-2.374,4.608
				c-0.587,0.688-3.136,3.458-4.133,3.272C45.613,378.917,52.316,362.445,52.93,360.84z"/>
			<path style="fill:#8A8299;" d="M183.011,268.099c-0.098-1.083-0.217-2.164-0.354-3.243c-0.065-0.513-0.066-2.464-0.387-2.746
				c-0.288-0.253-0.655-0.426-1.126-0.475c-1.056-0.111-2.134-0.152-3.177-0.192c-0.558-0.021-1.114-0.043-1.668-0.074l-0.563-0.032
				c-2.977-0.171-6.054-0.347-9.087-0.455c-9.409-0.334-19.006-0.233-28.288-0.135c-3.865,0.04-7.86,0.082-11.781,0.092
				c-4.311,0.011-8.621,0.018-12.931,0.02c-0.796,0.002-1.586-0.001-2.379-0.003c-1.405-0.003-2.811-0.007-4.216,0.003
				c-0.262,0.001-0.612-0.034-0.977-0.071c-0.766-0.078-1.859-0.279-2.585,0.07c-0.303,0.145-0.493,0.305-0.617,0.489
				c-0.258,0.386-0.221,0.879-0.299,1.573c-0.236,2.098-0.375,4.205-0.453,6.315c-0.152,4.136-0.062,8.276-0.006,12.414
				c0.091,6.707,0.304,13.412,0.663,20.11c0.355,6.633,0.85,13.339,1.467,20.008c0.432,5.973,0.916,11.905,1.456,17.761
				c0.214,1.497,0.419,2.995,0.623,4.494c0.419,4.276,0.864,8.533,1.342,12.762c-2.172-0.677-4.344-1.354-6.519-2.024
				c-6.422-1.973-12.986-3.803-19.333-5.573l-2.336-0.651l-0.183,0.416c-0.206,0.47-0.417,0.938-0.632,1.406
				c-1.546,3.364-2.903,6.808-4.148,10.53c-0.282,0.841-0.559,1.685-0.835,2.53l-0.133,0.405l0.552,0.318
				c7.975,4.581,15.425,8.712,22.777,12.629c1.1,0.586,2.296,1.26,3.563,1.973c6.012,3.385,13.829,7.785,20.475,7.785
				c1.535,0,3.009-0.235,4.382-0.772c2.407-0.94,4.365-2.757,5.854-5.414c2.77-3.675,4.161-8.359,5.09-12.79
				c1.272-6.07,1.62-12.303,1.772-18.489c0.106-4.303,0.061-8.608,0.152-12.91c-0.09-5.541-0.183-11.062-0.275-16.548
				c-0.192-11.41-0.384-22.819-0.555-34.227c-0.006-0.377-0.016-0.757-0.031-1.137c2.176,0.698,4.706,1.254,7.436,0.786
				c0.961-0.165,1.962-0.419,3.105-0.789c-0.015,0.382-0.026,0.763-0.031,1.14c-0.17,11.409-0.362,22.818-0.554,34.227
				c-0.548,32.556-1.115,66.22-1.143,99.333c0,6.715,0.179,13.522,0.352,20.105l0.013,0.498c0.007,0.281,0.234,0.506,0.515,0.51
				c3.571,0.06,7.142,0.122,10.712,0.188c2.058,0.038,3.726,0.085,5.247,0.147c0.008,0,0.015,0.001,0.022,0.001
				c0.244,0,0.457-0.169,0.511-0.409c1.871-8.328,3.481-15.989,4.922-23.422c0.271-1.401,0.539-2.802,0.801-4.204
				c3.015-16.074,5.577-32.831,7.613-49.806c1.947-16.226,3.47-33.115,4.526-50.197c0.193-3.123,0.415-6.299,0.63-9.369
				C182.79,291.447,184.055,279.645,183.011,268.099z"/>
			<g>
				<path style="fill:#F2F2F2;" d="M46.84,379.839c0.553,0.343,1.563-0.018,2.125-0.151c1.201-0.283,2.339-0.792,3.382-1.447
					c2.073-1.301,3.779-3.155,5.126-5.183c1.767-2.66,2.938-5.632,3.68-8.719c2.133-0.067,4.254-0.612,6.15-1.6
					c0.798-0.416,1.549-0.917,2.247-1.483c-0.1-1.812,0.21-3.685,0.595-5.453c0.683-3.138,1.699-5.921,3.299-8.693
					c-1.34-0.851-3.259-1.229-4.764-1.712c-1.831-0.587-3.684-1.104-5.555-1.547c-0.87-0.206-1.749-0.428-2.633-0.569
					c-1.717-0.272-2.694,1.816-3.273,3.079c-1.015,2.215-2.058,4.419-3.014,6.661c-2.182,5.116-4.011,10.383-5.473,15.749
					c-0.862,3.166-1.597,6.367-2.199,9.593c-0.058,0.311-0.115,0.633-0.045,0.942C46.547,379.567,46.673,379.735,46.84,379.839z"/>
				<path style="fill:#4A4A4A;" d="M49.388,379.568c0.791-4.195,1.771-8.356,2.895-12.466c1.456-5.323,3.356-10.502,5.757-15.47
					c1.07-2.214,2.335-5.983,4.537-7.912c-0.691-0.165-1.386-0.327-2.085-0.438c-1.717-0.272-2.694,1.816-3.273,3.079
					c-1.015,2.215-2.058,4.419-3.014,6.662c-2.181,5.116-4.011,10.383-5.473,15.749c-0.862,3.166-1.597,6.367-2.199,9.593
					c-0.058,0.311-0.115,0.633-0.045,0.942c0.059,0.259,0.184,0.427,0.352,0.531c0.553,0.343,1.563-0.018,2.125-0.15
					C49.108,379.655,49.247,379.608,49.388,379.568z"/>
				<path style="fill:#4A4A4A;" d="M68.437,349.673c0.359-1.253-0.365-2.559-1.617-2.918c-1.252-0.359-2.559,0.365-2.918,1.617
					c-0.359,1.252,0.365,2.559,1.617,2.918C66.772,351.65,68.078,350.925,68.437,349.673z"/>
				<path style="fill:#4A4A4A;" d="M67.858,364.47c0.655-0.546,0.732-1.463,0.652-2.253c-0.034-0.331-0.559-0.342-0.524-0.005
					c0.073,0.719,0.042,1.649-0.702,2.017c-0.733,0.362-1.199-0.371-1.476-0.942c-0.637-1.317-0.84-2.84-0.582-4.279
					c0.059-0.329-0.444-0.477-0.504-0.145c-0.248,1.385-0.125,2.819,0.39,4.132c0.231,0.59,0.517,1.254,1.053,1.629
					C66.7,364.997,67.378,364.871,67.858,364.47z"/>
				<path style="fill:#4A4A4A;" d="M64.111,366.123c0.655-0.546,0.732-1.463,0.652-2.253c-0.034-0.332-0.559-0.342-0.524-0.005
					c0.073,0.719,0.042,1.649-0.702,2.017c-0.733,0.362-1.199-0.371-1.476-0.942c-0.637-1.317-0.84-2.84-0.582-4.279
					c0.059-0.329-0.444-0.477-0.504-0.145c-0.248,1.385-0.125,2.819,0.39,4.131c0.231,0.59,0.517,1.255,1.053,1.629
					C62.953,366.65,63.631,366.523,64.111,366.123z"/>
			</g>
			<path style="fill:#4A4A4A;" d="M114.502,274.019c-4.158-0.089-8.312-0.322-12.454-0.686c-0.001,0.175-0.001,0.351-0.001,0.526
				c4.049,0.355,8.109,0.583,12.173,0.675c-0.016,1.312-0.031,2.625-0.047,3.938c-0.016,1.31-0.007,2.624-0.109,3.93
				c-0.171,2.179-0.792,4.276-1.908,6.162c-2.096,3.543-5.626,5.99-9.675,6.665c0.007,0.176,0.013,0.352,0.02,0.528
				c1.757-0.279,3.464-0.87,5-1.781c3.658-2.17,6.264-5.99,6.93-10.193c0.238-1.505,0.238-3.033,0.256-4.552
				c0.019-1.561,0.037-3.123,0.056-4.684c0.001-0.059-0.019-0.106-0.045-0.147C114.777,274.247,114.723,274.024,114.502,274.019z"/>
			<path style="fill:#4A4A4A;" d="M182.523,295.732c0.013-0.176,0.026-0.351,0.039-0.527c-3.986-0.71-7.454-3.142-9.524-6.641
				c-1.115-1.885-1.736-3.983-1.908-6.162c-0.103-1.307-0.094-2.621-0.109-3.93c-0.016-1.313-0.031-2.625-0.047-3.938
				c4.131-0.093,8.257-0.327,12.373-0.692c-0.005-0.175-0.011-0.35-0.018-0.525c-4.204,0.374-8.419,0.611-12.638,0.701
				c-0.221,0.005-0.275,0.228-0.195,0.381c-0.026,0.041-0.046,0.087-0.045,0.147c0.019,1.561,0.037,3.122,0.056,4.684
				c0.018,1.519,0.018,3.048,0.256,4.552c0.666,4.204,3.272,8.023,6.93,10.193C179.179,294.859,180.825,295.443,182.523,295.732z"/>
			<g>
				<path style="fill:#D99582;" d="M234.915,180.082c-0.039-0.643-0.14-1.286-0.309-1.907c-0.138-0.507-0.309-1.073-0.728-1.423
					c-0.442-0.37-1.057-0.344-1.532-0.049c-0.008,0.005-0.014,0.011-0.021,0.016c-0.288-0.994-0.755-1.909-1.542-2.526
					c-0.712-0.558-1.57-0.107-2.2,0.342c0.512-0.365,0.278-1.276-0.105-1.592c-0.452-0.371-1.104-0.468-1.732-0.399
					c1.068-1.896,1.988-3.876,2.727-5.928c0.21-0.582,0.441-1.175,0.581-1.779c0.118-0.507,0.112-1.058-0.229-1.48
					c-0.823-1.018-2.059,0.164-2.681,0.806c-0.853,0.88-1.531,1.912-2.216,2.923c-0.729,1.076-1.454,2.156-2.122,3.272
					c-0.738,1.231-1.403,2.508-1.924,3.847c-0.461,1.183-0.77,2.442-1.474,3.508c-0.508,0.398-0.986,0.836-1.42,1.319
					c-0.998,1.109-0.555,2.326-0.29,3.652c0.345,1.732,0.69,3.464,1.035,5.197c0.096,0.484,0.134,1.056,0.482,1.438
					c0.363,0.398,0.957,0.629,1.418,0.889l3.249,1.837l3.762,2.127c0.076,0.043,0.189,0.053,0.265,0
					c1.973-1.404,3.315-3.39,4.252-5.594c0.177-0.416,0.311-0.852,0.423-1.296c0.781-0.999,1.409-2.115,1.816-3.33
					C234.812,182.711,234.995,181.385,234.915,180.082z"/>
				<path style="opacity:0.4;fill:#320032;" d="M232.376,186.456c-0.735-0.074-1.307-0.635-1.612-1.277
					c-0.159-0.334-0.236-0.695-0.264-1.062c0-0.019,0-0.037-0.004-0.055c-0.031-0.493,0.027-0.998,0.117-1.471
					c0.34-1.778,0.956-3.529,1.695-5.177c0.137-0.305-0.315-0.572-0.453-0.265c-0.429,0.957-0.808,1.936-1.125,2.936
					c-0.312,0.986-0.608,2.003-0.727,3.033c-0.034,0.292-0.044,0.589-0.031,0.884c-0.686,0.691-1.807,0.75-2.519,0.04
					c-0.786-0.785-0.639-2.006-0.461-3.017c0.13-0.006,0.259-0.011,0.389-0.024c0.698-0.067,1.392-0.213,2.051-0.455
					c0.512-0.188,1.061-0.485,1.306-0.998c0.61-1.275-1.341-2.027-2.191-2.409c-0.218-0.098-0.44-0.182-0.662-0.27
					c0.118-0.739,0.413-1.428,0.871-2.021c0.086-0.112,0.017-0.294-0.094-0.359c-0.135-0.079-0.272-0.018-0.359,0.094
					c-0.471,0.609-0.784,1.338-0.913,2.097c-0.65-0.23-1.315-0.413-1.99-0.551c0.178-1.174,0.615-2.299,1.274-3.286
					c0.188-0.281-0.266-0.544-0.453-0.265c-0.696,1.042-1.134,2.223-1.33,3.457c-0.156-0.026-0.311-0.054-0.468-0.075
					c-1.319-0.176-2.876-0.208-3.864,0.838c-0.232,0.245,0.138,0.617,0.371,0.371c0.738-0.781,1.883-0.84,2.89-0.753
					c0.392,0.034,0.782,0.093,1.17,0.163c0.035,0.016,0.072,0.027,0.108,0.028c0.007,0,0.011-0.003,0.018-0.003
					c0.771,0.147,1.531,0.353,2.265,0.622c0.595,0.218,1.173,0.476,1.733,0.772c0.396,0.209,1.107,0.494,1.198,0.995
					c0.099,0.544-0.608,0.895-1.02,1.047c-0.56,0.207-1.15,0.349-1.743,0.419c-0.226,0.026-0.452,0.04-0.678,0.048
					c-0.083-0.039-0.176-0.041-0.248,0.005c-1.078,0.003-2.154-0.205-3.147-0.629c-0.307-0.131-0.574,0.32-0.265,0.453
					c0.2,0.085,0.403,0.16,0.607,0.231c0.021,0.038,0.052,0.073,0.104,0.097c1.533,0.723,1.959,2.573,1.382,4.069
					c-0.65,1.684-2.256,2.713-3.879,3.319c-0.313,0.117-0.178,0.624,0.139,0.506c1.84-0.687,3.598-1.857,4.283-3.786
					c0.466-1.312,0.221-2.865-0.712-3.865c0.438,0.077,0.882,0.117,1.328,0.125c-0.197,1.203-0.279,2.593,0.713,3.467
					c0.819,0.721,2.022,0.753,2.873,0.136c0.08,0.402,0.22,0.789,0.448,1.14c0.432,0.664,1.083,1.125,1.879,1.205
					C232.711,187.014,232.708,186.489,232.376,186.456z"/>
			</g>
			<path style="fill:#D99582;" d="M226.373,190.575c-2.157-1.771-4.401-3.303-6.791-4.685c-0.869,2.074-6.45,7.559-7.332,8.503
				c-3.203,3.43-6.863,6.264-10.486,9.207c-2.827-11.359-6.539-22.816-10.536-33.815c-2.497-6.871-5.94-13.311-12.907-16.488
				c-1.556-0.71-3.23-1.231-4.941-1.234c-1.71-0.003-3.466,0.554-4.682,1.757c-3.391,3.355-3.307,11.605-3.529,16.059
				c-0.88,17.681,4.821,36.31,14.276,51.174c2.031,3.194,4.369,6.206,7.1,8.836c3.041,2.928,8.208,9.276,12.662,5.65
				c0.09-0.073,0.176-0.152,0.264-0.227c3.22-2.441,5.849-5.765,8.414-8.83c2.65-3.166,5.164-6.445,7.535-9.824
				c2.887-4.114,5.223-8.837,7.643-13.356c1.892-3.533,4.027-6.921,6.067-10.365C228.221,192.14,227.309,191.343,226.373,190.575z"
				/>
			<path style="fill:#FFB8B8;" d="M222.664,204.137c-4.969-3.117-8.362-6.083-10.679-9.334c-0.09-0.127-0.232-0.206-0.387-0.218
				c-0.154-0.011-0.307,0.045-0.415,0.157c-2.625,2.692-5.59,5.089-8.457,7.406l-0.652,0.528
				c-2.546-10.089-5.936-20.917-10.352-33.07c-2.321-6.386-5.701-13.374-13.182-16.786c-1.882-0.859-3.569-1.278-5.157-1.282
				c-0.006,0-0.011,0-0.016,0c-1.975,0-3.81,0.695-5.036,1.909c-3.165,3.131-3.437,10.163-3.617,14.816
				c-0.022,0.568-0.042,1.102-0.067,1.59c-0.848,17.041,4.385,35.805,14.357,51.482c2.2,3.458,4.615,6.464,7.179,8.932
				c0.363,0.349,0.756,0.748,1.176,1.173c2.368,2.399,5.649,5.723,8.957,5.723c1.082,0,2.167-0.356,3.224-1.216
				c0.06-0.048,0.118-0.099,0.176-0.15l0.074-0.066c2.938-2.228,5.365-5.145,7.711-7.965l0.788-0.946
				c2.645-3.16,5.19-6.478,7.562-9.859c2.386-3.4,4.414-7.24,6.374-10.954l0.624-1.18
				C222.977,204.584,222.896,204.283,222.664,204.137z"/>
			<path style="fill:#F2F2F2;" d="M214.686,205.681c1.674,1.613,3.411,3.186,5.178,4.727c0.809-1.464,1.591-2.942,2.361-4.401
				l0.624-1.18c0.129-0.243,0.048-0.544-0.185-0.69c-4.969-3.117-8.362-6.083-10.679-9.334c-0.09-0.127-0.232-0.206-0.387-0.218
				c-0.154-0.011-0.307,0.045-0.415,0.157c-0.943,0.968-1.932,1.896-2.943,2.798C209.819,200.624,212.272,203.355,214.686,205.681z"
				/>
			<path style="fill:#D99582;" d="M182.721,162.101c-5.231-18.199-32.503-23.464-48.514-20.487
				c-11.378,2.115-28.417,7.894-32.036,20.487c-0.422,1.467-0.603,2.957-0.601,4.454c6.512,11.206,12.522,22.597,16.584,34.999
				c2.269,6.928,3.981,14.021,4.836,21.269c0.117,0.995,0.209,1.99,0.277,2.985c0.475,0.37,0.979,0.722,1.518,1.052
				c9.907,6.062,25.292,6.136,35.322,0c0.539-0.33,1.042-0.682,1.518-1.052c0.068-0.995,0.16-1.99,0.277-2.985
				c0.855-7.247,2.567-14.341,4.836-21.269c4.062-12.402,10.073-23.793,16.584-34.999
				C183.324,165.058,183.142,163.568,182.721,162.101z"/>
			<path style="fill:#FFB8B8;" d="M110.102,185.497l0.045,0.088c1.647,3.266,3.021,6.622,4.428,9.999
				c1.316,3.157-0.762,7.534-1.504,10.711c-0.952,4.079-1.885,8.163-2.795,12.251c-2.423,10.877-4.449,20.52-6.191,29.482
				c-0.19,0.979-0.372,1.938-0.547,2.884c3.123,1.027,6.215,2.163,9.36,3.119c4.359,1.325,8.818,2.321,13.31,3.073
				c9.106,1.525,18.413,1.601,27.583,0.657c9.63-0.991,18.899-3.306,27.902-6.457c-0.202-1.102-0.407-2.198-0.617-3.277
				c-1.749-8.99-3.774-18.633-6.191-29.481c-1.331-5.976-2.676-11.952-4.128-17.9c-1.678-6.874,3.461-15.034,6.216-21.123
				c1.691-3.736,3.646-7.422,5.538-10.987l0.399-0.752c0.361-0.682,0.711-1.378,1.061-2.078c0.864-1.725,1.757-3.51,2.861-5.071
				l0.349-0.494c0,0-0.388-0.464-0.387-0.463c-12.973-15.582-33.216-22.996-52.824-19.353
				c-15.611,2.902-28.274,10.129-37.638,21.483l-0.401,0.491l0.393,0.497c3.773,4.769,7.416,10.425,10.534,16.357
				C107.957,181.25,109.048,183.409,110.102,185.497z"/>
			<path style="fill:#F0626E;" d="M151.633,205.806c-0.276-1.729-0.552-3.459-0.828-5.188c-0.547-3.425-1.093-6.85-1.639-10.275
				l-1.648-10.325c-0.333-2.09-0.667-4.18-1-6.269c0.092,0.009,0.198-0.014,0.258-0.069l2.532-2.295
				c0.375-0.34,0.75-0.68,1.125-1.02c0.341-0.309,0.766-0.617,1.008-0.97c0.214-0.312,0.169-0.627-0.027-0.937
				c-0.235-0.371-0.553-0.723-0.834-1.078c-1.184-1.495-2.368-2.99-3.553-4.485c-0.039-0.05-0.099-0.072-0.161-0.077
				c-0.027-0.008-0.058-0.012-0.093-0.012c-1.959,0.018-3.918,0.035-5.878,0.053c-0.038,0-0.072,0.006-0.1,0.015
				c-0.098-0.072-0.284-0.091-0.372,0.021c-1.184,1.495-2.369,2.99-3.553,4.485c-0.281,0.355-0.599,0.707-0.834,1.078
				c-0.197,0.31-0.241,0.625-0.027,0.937c0.241,0.353,0.667,0.661,1.008,0.97c0.375,0.34,0.75,0.68,1.125,1.02l2.532,2.295
				c0.06,0.055,0.165,0.078,0.258,0.069c-0.334,2.09-0.667,4.179-1,6.269l-1.647,10.325c-0.547,3.425-1.093,6.85-1.639,10.275
				c-0.276,1.729-0.552,3.459-0.828,5.188c-0.257,1.612-0.542,3.254,0.15,4.837c0.658,1.507,1.921,2.879,3.016,4.251
				c1.2,1.504,2.399,3.008,3.599,4.511c0.306,0.383,0.612,0.767,0.917,1.15c0.053,0.067,0.143,0.087,0.227,0.076
				c0.084,0.01,0.173-0.009,0.227-0.076c0.306-0.383,0.611-0.767,0.917-1.15c1.199-1.504,2.399-3.008,3.599-4.511
				c1.094-1.372,2.357-2.744,3.016-4.251C152.174,209.06,151.89,207.418,151.633,205.806z"/>
			<path style="fill:#F2F2F2;" d="M162.179,152.596c-0.123-3.988-1.309-8.422-4.44-11.124c-1.726-1.489-3.842-2.081-6.079-2.269
				c-5.313-0.446-10.752-0.446-16.066,0c-2.237,0.188-4.353,0.78-6.079,2.269c-3.131,2.702-4.317,7.136-4.44,11.124
				c-0.141,4.573,1.254,9.27,4.642,12.472c2.877,2.719,8.276,4.997,11.358,1.37c1.313-1.545,2.014-3.575,2.551-5.521
				c0.537,1.946,1.238,3.976,2.551,5.521c3.082,3.627,8.481,1.349,11.358-1.37C160.925,161.865,162.319,157.168,162.179,152.596z"/>
			<path style="fill:#D99582;" d="M153.756,121.896c-6.376,2.551-13.652,2.235-20.625,0.309c-0.914,7.899-1.312,15.874-1.247,23.838
				c0.038,4.636,0.554,9.666,3.227,12.988c2.791,3.469,7.302,4.131,11.198,3.031c3.25-0.918,6.439-3.108,7.959-6.703
				c1.083-2.56,1.216-5.542,1.2-8.418c-0.006-1.188-0.031-2.374-0.071-3.56C155.155,136.211,154.419,129.044,153.756,121.896z"/>
			<path style="opacity:0.4;fill:#320032;" d="M153.756,121.896c-6.375,2.55-13.649,2.235-20.622,0.31
				c-0.635,5.494-1.023,11.024-1.176,16.562c5.682,7.436,14.751,9.047,23.496,7.08c-0.012-0.823-0.029-1.646-0.057-2.468
				C155.155,136.211,154.419,129.044,153.756,121.896z"/>
			<path style="opacity:0.4;fill:#320032;" d="M175.732,179.036c-0.203,1.552-0.626,3.073-1.231,4.517
				c-0.054-2.12-0.137-4.24-0.261-6.357c-0.02-0.335-0.544-0.338-0.524,0c0.498,8.526,0.43,17.083-0.212,25.6
				c-0.182,2.408-0.409,4.813-0.681,7.213c-0.038,0.335,0.487,0.332,0.524,0c0.962-8.486,1.359-17.035,1.181-25.573
				c0-0.004,0-0.008,0-0.012c0.09,0.014,0.181-0.02,0.232-0.132c0.758-1.673,1.259-3.435,1.497-5.256
				C176.299,178.703,175.775,178.706,175.732,179.036z"/>
			<path style="fill:#D99582;" d="M112.512,95.755c-0.085-0.363-0.184-0.724-0.295-1.082c-0.871-2.804-2.53-5.396-4.958-7.024
				c-8.131-5.453-16.66,3.719-14.094,12.046c1.43,4.64,6.18,8.032,11.033,7.879c3.014-0.095,6.074-1.574,7.583-4.184
				C113.093,101.122,113.112,98.304,112.512,95.755z"/>
			<path style="opacity:0.4;fill:#320032;" d="M107.011,99.152c-4.569,1.568-10.24,0.52-14.304-2.41
				c0.013,0.979,0.156,1.972,0.459,2.953c1.43,4.64,6.18,8.032,11.033,7.879c3.014-0.095,6.074-1.574,7.583-4.184
				c1.243-2.15,1.324-4.795,0.817-7.236C110.894,97.422,109.037,98.457,107.011,99.152z"/>
			<path style="fill:#D99582;" d="M171.197,95.755c0.085-0.363,0.184-0.724,0.295-1.082c0.871-2.804,2.53-5.396,4.958-7.024
				c8.131-5.453,16.66,3.719,14.094,12.046c-1.43,4.64-6.18,8.032-11.033,7.879c-3.013-0.095-6.074-1.574-7.583-4.184
				C170.616,101.122,170.597,98.304,171.197,95.755z"/>
			<path style="opacity:0.4;fill:#320032;" d="M176.698,99.152c4.569,1.568,10.24,0.52,14.304-2.41
				c-0.013,0.979-0.156,1.972-0.459,2.953c-1.43,4.64-6.18,8.032-11.033,7.879c-3.013-0.095-6.074-1.574-7.583-4.184
				c-1.243-2.15-1.324-4.795-0.817-7.236C172.815,97.422,174.673,98.457,176.698,99.152z"/>
			<path style="fill:#D99582;" d="M106.498,94.459c-0.014,0.578-0.021,1.156-0.022,1.732c-0.014,7.531,1.088,15.298,5.073,21.777
				c6.181,10.049,18.622,15.465,30.742,15.841c8.817,0.274,17.994-1.979,24.588-7.622c10.046-8.598,12.121-22.937,11.405-35.862
				c-0.879-15.853-9.831-31.891-27.537-34.559c-16.08-2.423-33.436,4.51-40.207,19.209
				C107.732,81.069,106.661,87.781,106.498,94.459z"/>
			<ellipse style="opacity:0.4;fill:#320032;" cx="123.364" cy="109.597" rx="9.961" ry="6.291"/>
			<ellipse style="opacity:0.4;fill:#320032;" cx="161.111" cy="109.597" rx="9.961" ry="6.291"/>
			<ellipse style="fill:#4A4A4A;" cx="125.447" cy="96.752" rx="2.307" ry="2.884"/>
			<ellipse style="fill:#4A4A4A;" cx="158.476" cy="96.752" rx="2.307" ry="2.884"/>
			<path style="fill:#4A4A4A;" d="M145.209,103.395c-0.194-0.276-0.617,0.034-0.422,0.311c0.275,0.391,0.225,1.033-0.166,1.352
				c-0.374,0.305-1.017,0.298-1.362-0.066c-0.009-0.009-0.02-0.016-0.03-0.024c-0.01-0.01-0.021-0.018-0.032-0.026
				c-0.013-0.009-0.027-0.017-0.041-0.024c-0.012-0.005-0.022-0.01-0.035-0.013c-0.074-0.026-0.155-0.023-0.229,0.031
				c-0.011,0.008-0.018,0.021-0.027,0.031c-0.832,0.465-1.932,0.271-2.618-0.376c-0.778-0.734-0.755-1.872-0.161-2.714
				c0.322-0.457,0.827-0.811,1.388-0.893c0.152,0.065,0.375-0.01,0.385-0.228c0.055-1.197,0.065-2.395,0.029-3.593
				c-0.01-0.337-0.535-0.338-0.524,0c0.033,1.108,0.023,2.217-0.022,3.326c-1.205,0.235-2.113,1.306-2.218,2.529
				c-0.111,1.286,0.861,2.363,2.072,2.652c0.615,0.147,1.264,0.083,1.828-0.201c0.413,0.318,0.96,0.415,1.468,0.25
				c0.573-0.187,0.959-0.743,0.99-1.337C145.499,104.029,145.414,103.686,145.209,103.395z"/>
			<path style="fill:#F0626E;" d="M138.666,109.885c0.692,1.489,2.233,2.523,3.877,2.582c1.679,0.06,3.309-0.926,4.084-2.405
				c0.157-0.299-0.296-0.564-0.453-0.265c-0.694,1.324-2.127,2.199-3.632,2.145c-1.471-0.053-2.81-1-3.424-2.322
				C138.977,109.315,138.525,109.581,138.666,109.885z"/>
			<path style="fill:#F2F2F2;" d="M171.871,95.408c-0.031-0.034-0.073-0.058-0.131-0.069c-0.143-0.025-0.304-0.007-0.448-0.007
				c-0.206,0-0.413,0-0.619,0c-0.275,0-0.55,0-0.825,0c-0.336,0-0.671,0-1.007,0c-0.388,0-0.776,0-1.164,0c-0.433,0-0.865,0-1.298,0
				c-0.469,0-0.938,0-1.407,0c-0.497,0-0.994,0-1.492,0c-0.518,0-1.035,0-1.552,0c-0.53,0-1.059,0-1.589,0c-0.534,0-1.068,0-1.601,0
				c-0.53,0-1.06,0-1.59,0c-0.518,0-1.036,0-1.554,0c-0.498,0-0.996,0-1.494,0c-0.47,0-0.94,0-1.41,0c-0.434,0-0.867,0-1.301,0
				c-0.389,0-0.779,0-1.168,0c-0.337,0-0.675,0-1.012,0c-0.277,0-0.554,0-0.831,0c-0.209,0-0.417,0-0.626,0
				c-0.132,0-0.264,0-0.397,0c-0.048,0-0.095,0-0.143,0c-0.149-0.001-0.298,0.002-0.447,0.002c-0.074,0-0.149,0.001-0.223-0.004
				c-0.074-0.005-0.107-0.035-0.169-0.073c-0.046-0.029-0.093-0.058-0.14-0.086c-0.09-0.054-0.182-0.106-0.274-0.156
				c-0.184-0.1-0.373-0.192-0.565-0.276c-0.383-0.168-0.78-0.304-1.186-0.409c-0.81-0.209-1.652-0.291-2.488-0.245
				c-0.835,0.046-1.664,0.219-2.445,0.52c-0.25,0.096-0.496,0.206-0.734,0.328c-0.12,0.061-0.238,0.126-0.354,0.193
				c-0.099,0.058-0.241,0.19-0.355,0.204c-0.01,0.001-0.02,0.001-0.029,0.001c-0.196,0-0.391,0-0.587,0h-23.576
				c-0.312,0-0.624-0.005-0.935-0.023c-0.076-0.004-0.159,0.007-0.212,0.061c-0.053,0.053-0.051,0.122-0.061,0.191
				c-0.011,0.077-0.036,0.152-0.05,0.228c-0.02,0.103-0.039,0.206-0.058,0.309c-0.037,0.198-0.078,0.396-0.111,0.595
				c-0.081,0.499-0.132,1.003-0.154,1.508c-0.008,0.18-0.011,0.359-0.011,0.539c0,7.227,5.88,13.107,13.107,13.107
				c7.227,0,13.107-5.88,13.107-13.107c0-0.981-0.112-1.936-0.317-2.856c0.017-0.007,0.033-0.009,0.051-0.021
				c2.487-1.703,5.926-1.69,8.4,0.028c0.014,0.01,0.028,0.011,0.042,0.018c-0.202,0.912-0.311,1.859-0.311,2.831
				c0,7.227,5.88,13.107,13.107,13.107c7.227,0,13.107-5.88,13.107-13.107c0-1.012-0.119-2.023-0.352-3.008
				C171.962,95.621,171.946,95.489,171.871,95.408z M125.157,111.323c-6.938,0-12.582-5.645-12.582-12.583
				c0-0.994,0.127-1.956,0.348-2.883h24.468c0.22,0.927,0.349,1.89,0.349,2.883C137.739,105.679,132.094,111.323,125.157,111.323z
				 M159.234,111.323c-6.938,0-12.582-5.645-12.582-12.583c0-0.993,0.122-1.956,0.341-2.883h24.475
				c0.221,0.927,0.35,1.89,0.35,2.883C171.817,105.679,166.172,111.323,159.234,111.323z"/>
			<path style="fill:#39354D;" d="M182.451,70.127c-0.954-1.565-2.243-2.957-3.669-4.102c-1.64-1.317-3.592-2.285-5.644-2.705
				c0.004-0.427-0.032-0.856-0.116-1.28c-0.541-2.759-2.57-5.042-4.779-6.654c-2.331-1.7-5.206-2.843-8.126-2.708
				c-1.138,0.053-2.272,0.296-3.33,0.718c-0.478-0.856-1.085-1.652-1.774-2.355c-2.035-2.077-4.752-3.423-7.616-3.879
				c-2.819-0.449-5.72,0.047-8.233,1.397c-1.489,0.8-2.814,1.878-3.914,3.151c-0.884-1.289-2.691-1.751-4.214-1.644
				c-2.026,0.142-3.942,1.085-5.386,2.5c-1.024,1.002-1.813,2.245-2.259,3.603c-0.004-0.046-0.001-0.092-0.005-0.138
				c-0.064-0.745-0.206-1.484-0.426-2.199c-0.196-0.637-0.419-1.348-0.826-1.885c-0.352-0.464-0.913-0.664-1.46-0.42
				c-0.569,0.254-0.869,0.831-0.911,1.432c-0.047,0.682,0.172,1.385,0.402,2.018c0.031,0.086,0.074,0.167,0.108,0.252
				c-0.205-0.152-0.417-0.295-0.645-0.417c-1.255-0.673-3.151-0.928-4.276,0.158c-0.645,0.623-0.188,1.364,0.284,1.931
				c0.45,0.539,0.977,1.015,1.551,1.419c0.652,0.458,1.364,0.82,2.107,1.106c-0.017,0.001-0.035,0.002-0.052,0.004
				c-3.132,0.264-6.29,1.167-8.839,3.061c-2.311,1.717-4.086,4.251-4.597,7.111c-0.195,1.089-0.23,2.28,0.118,3.342
				c-0.569,0.387-1.097,0.834-1.553,1.363c-1.455,1.687-2.128,4.153-1.262,6.27c0.728,1.78,2.472,2.929,4.299,3.342
				c2.04,0.461,4.091,0.066,5.887-0.983c1.25-0.73,2.321-1.703,3.268-2.791c1.428,0.55,3.073,0.49,4.494-0.047
				c1.816-0.687,3.188-2.259,4.09-3.932c1.041-1.931,1.592-4.095,1.952-6.247c0.079-0.471,0.141-0.945,0.196-1.419
				c1.27,1.362,3.124,2.235,4.97,2.199c3.635-0.071,6.585-2.706,8.039-5.889c0.285,0.497,0.609,0.972,0.968,1.416
				c1.526,1.888,3.608,3.266,5.767,4.33c2.248,1.108,4.74,1.772,7.231,1.177c1.206-0.288,2.337-0.826,3.343-1.542
				c-0.31,1.83-0.308,3.681,0.392,5.45c0.507,1.282,1.358,2.469,2.504,3.253c1.105,0.755,2.439,1.035,3.75,0.826
				c1.021,1.565,2.475,2.854,4.153,3.69c2.924,1.458,6.315,1.356,9.209-0.129c2.959-1.518,5.274-4.351,5.891-7.65
				C183.876,73.686,183.474,71.806,182.451,70.127z"/>
			<g>
				<path style="fill:#B5705B;" d="M124.102,183.453l48.581,8.889c0.282,0.052,0.469,0.322,0.417,0.604l-13.165,71.951
					c-0.052,0.282-0.322,0.469-0.604,0.417l-48.581-8.889c-0.282-0.052-0.469-0.322-0.417-0.604l13.165-71.951
					C123.549,183.588,123.82,183.402,124.102,183.453z"/>
				<path style="fill:#213150;" d="M134.454,182.678l4.987,0.913l0.218-1.191c0.015-0.082,0.174-0.797,1.099-0.627l16.968,3.107
					c0.926,0.17,0.82,0.894,0.806,0.975l-0.218,1.192l4.986,0.913c0.999,0.183,0.961,0.826,0.926,1.018l-1.221,6.679
					c-0.035,0.192-0.228,0.807-1.227,0.624l-28.845-5.281c-0.999-0.183-0.962-0.826-0.926-1.018l1.221-6.679
					C133.262,183.109,133.455,182.495,134.454,182.678z"/>
			</g>
			<path style="fill:#D99582;" d="M90.809,175.926c1.213-4.292,2.977-12.352,7.032-14.862c1.454-0.901,3.291-1.051,4.957-0.665
				c1.666,0.386,3.181,1.268,4.539,2.308c6.079,4.656,7.994,11.703,8.891,18.958c0.631,5.112,0.947,10.569,1.31,16.111
				c0.207,1.642,0.4,3.285,0.561,4.932c0.474,4.833,0.755,9.686,0.839,14.542c0.047,2.747,0.019,5.495-0.06,8.242
				c1.341,0.189,2.68,0.392,4.015,0.623c2.271,0.392,4.528,0.856,6.781,1.339c7.177,1.541,14.564,3.435,21.906,3.929
				c0.306,0.02,1.089,0.124,2.036,0.234c0.132-0.076,0.263-0.15,0.387-0.224c1.515-0.908,3.029-1.817,4.544-2.725
				c1.16-0.696,2.156-1.523,3.537-0.957c0.977,0.4,1.891,0.936,2.715,1.584c0.934-0.43,1.771-0.963,2.82-0.595
				c1.154,0.406,2.683,1.624,1.52,2.88c0,0.002,0.001,0.004,0.001,0.006c0.234,0.147,0.467,0.295,0.684,0.467
				c0.479,0.381,0.909,0.86,1.119,1.444c0.203,0.562,0.223,1.195-0.057,1.736c-0.211,0.407-0.548,0.714-0.927,0.959
				c0.033,0.008,0.067,0.016,0.11,0.017c-0.043-0.002-0.086-0.004-0.129-0.006c-0.004,0.002-0.007,0.004-0.011,0.006
				c0.682,0.446,1.295,1.1,1.023,1.918c-0.316,0.949-1.02,1.698-1.859,2.303c0.007,0.005,0.015,0.009,0.022,0.015
				c0.437,0.349,0.669,0.918,0.47,1.459c-0.189,0.512-0.663,0.864-1.094,1.165c-0.528,0.368-1.099,0.68-1.692,0.934
				c-1.201,0.514-2.511,0.789-3.816,0.815c-1.281,0.026-2.543-0.189-3.747-0.588c-0.456,0.044-0.911,0.065-1.362,0.038
				c-2.089-0.122-4.125-0.591-5.93-1.631c-2.921,0.83-5.803,1.802-8.798,2.375c-4.71,0.902-9.512,1.156-14.289,1.45
				c-4.121,0.253-8.252,0.331-12.379,0.233c-4.313-0.102-8.843-0.271-13.051-1.25c-0.261-0.061-0.526-0.126-0.756-0.264
				c-0.268-0.16-0.472-0.406-0.67-0.647c-4.057-4.943-6.579-9.494-8.724-15.539C87.383,212.394,85.995,192.962,90.809,175.926z"/>
			<path style="fill:#FFB8B8;" d="M143.443,230.085c-3.285-0.578-6.6-1.315-9.807-2.028c-1.309-0.291-2.613-0.581-3.909-0.86
				c-1.985-0.426-4.345-0.919-6.791-1.341c-1.164-0.201-2.406-0.394-3.79-0.591c0.08-2.851,0.097-5.476,0.054-8.02
				c-0.083-4.828-0.366-9.728-0.84-14.563c-0.146-1.484-0.33-3.1-0.561-4.924l-0.121-1.86c-0.324-4.998-0.629-9.719-1.191-14.265
				c-0.826-6.689-2.541-14.194-8.991-19.134c-1.613-1.235-3.13-2.006-4.639-2.356c-1.863-0.43-3.741-0.177-5.154,0.697
				c-3.698,2.289-5.52,9.022-6.725,13.477c-0.149,0.55-0.289,1.066-0.422,1.538c-4.625,16.368-3.725,35.77,2.47,53.23
				c2.19,6.172,4.73,10.697,8.768,15.618c0.201,0.244,0.429,0.521,0.739,0.707c0.255,0.152,0.539,0.226,0.831,0.293
				c4.183,0.974,8.585,1.15,13.104,1.257c1.142,0.027,2.289,0.041,3.438,0.041c2.988,0,5.99-0.092,8.963-0.275l0.663-0.04
				c3.606-0.221,7.336-0.449,10.974-0.972l0.232-0.033l-0.007-0.234c-0.065-2.078,0.076-4.232,0.418-6.399
				c0.474-3.008,1.358-6.061,2.489-8.596l0.137-0.307L143.443,230.085z"/>
			<path style="fill:#F2F2F2;" d="M143.443,230.085c-2.335-0.411-4.683-0.903-6.998-1.409c-1.01,2.657-2.068,5.306-2.704,8.035
				c-0.752,3.219-1.012,6.489-1.062,9.772c2.604-0.177,5.238-0.397,7.826-0.77l0.232-0.033l-0.007-0.234
				c-0.065-2.078,0.076-4.232,0.418-6.399c0.474-3.008,1.358-6.061,2.489-8.596l0.137-0.307L143.443,230.085z"/>
			<path style="opacity:0.4;fill:#320032;" d="M116.002,177.143c0.733,1.591,1.219,3.258,1.556,4.96
				c0.399-1.333,0.652-2.706,0.748-4.098c0.023-0.335,0.547-0.337,0.524,0c-0.121,1.765-0.489,3.5-1.082,5.165
				c0.252,1.557,0.398,3.135,0.491,4.708c0.235,3.978,0.345,7.966,0.509,11.947c0.095,2.303,0.189,4.605,0.284,6.908
				c0.014,0.337-0.51,0.337-0.524,0c-0.166-4.04-0.332-8.081-0.498-12.121c-0.148-3.618-0.166-7.285-0.695-10.875
				c-0.146-0.019-0.273-0.135-0.206-0.31c0.041-0.107,0.072-0.218,0.111-0.326c-0.325-1.957-0.838-3.888-1.67-5.694
				C115.409,177.104,115.861,176.837,116.002,177.143z"/>
			<path style="fill:#37334A;" d="M131.178,86.736c-0.13-0.421-0.399-0.775-0.815-0.909c-0.422-0.136-0.88-0.012-1.303,0.121
				c-2.83,0.888-5.539,2.161-8.028,3.774c-0.594,0.385-1.254,1.065-0.919,1.688c0.249,0.464,0.882,0.52,1.408,0.5
				c2.834-0.106,8.882-0.524,9.695-4.076C131.298,87.482,131.286,87.086,131.178,86.736z"/>
			<path style="fill:#37334A;" d="M153.143,86.736c0.13-0.421,0.399-0.775,0.815-0.909c0.422-0.136,0.88-0.012,1.303,0.121
				c2.83,0.888,5.539,2.161,8.028,3.774c0.594,0.385,1.254,1.065,0.919,1.688c-0.249,0.464-0.882,0.52-1.408,0.5
				c-2.834-0.106-8.882-0.524-9.695-4.076C153.023,87.482,153.035,87.086,153.143,86.736z"/>
		</g>
		<path style="fill:#080927;" d="M451.227,138.114c1.278,0,2.318,1.04,2.318,2.318c0,1.278-1.039,2.317-2.318,2.317
			c-1.278,0-2.318-1.04-2.318-2.317C448.909,139.154,449.949,138.114,451.227,138.114z"/>
		<path style="fill:#080927;" d="M442.395,120.803c1.278,0,2.318,1.039,2.318,2.317s-1.04,2.318-2.318,2.318
			c-1.278,0-2.318-1.04-2.318-2.318S441.117,120.803,442.395,120.803z"/>
		<path style="fill:#080927;" d="M448.909,183.711c0-1.278,1.04-2.318,2.318-2.318c1.278,0,2.318,1.04,2.318,2.318
			c0,1.278-1.039,2.318-2.318,2.318C449.949,186.028,448.909,184.989,448.909,183.711z"/>
		<path style="fill:#080927;" d="M448.909,192.366c0-1.278,1.04-2.318,2.318-2.318c1.278,0,2.318,1.04,2.318,2.318
			c0,1.278-1.039,2.318-2.318,2.318C449.949,194.684,448.909,193.644,448.909,192.366z"/>
		<path style="fill:#080927;" d="M451.227,172.737c1.278,0,2.318,1.04,2.318,2.318s-1.039,2.318-2.318,2.318
			c-1.278,0-2.318-1.04-2.318-2.318S449.949,172.737,451.227,172.737z"/>
		<path style="fill:#080927;" d="M448.909,157.743c0-1.278,1.04-2.317,2.318-2.317c1.278,0,2.318,1.04,2.318,2.317
			c0,1.278-1.039,2.318-2.318,2.318C449.949,160.061,448.909,159.021,448.909,157.743z"/>
		<path style="fill:#080927;" d="M448.909,166.399c0-1.278,1.04-2.318,2.318-2.318c1.278,0,2.318,1.04,2.318,2.318
			c0,1.278-1.039,2.318-2.318,2.318C449.949,168.717,448.909,167.677,448.909,166.399z"/>
		<path style="fill:#080927;" d="M451.227,146.77c1.278,0,2.318,1.039,2.318,2.318c0,1.278-1.039,2.318-2.318,2.318
			c-1.278,0-2.318-1.04-2.318-2.318C448.909,147.81,449.949,146.77,451.227,146.77z"/>
		<path style="fill:#080927;" d="M451.227,120.803c1.278,0,2.318,1.039,2.318,2.317s-1.039,2.318-2.318,2.318
			c-1.278,0-2.318-1.04-2.318-2.318S449.949,120.803,451.227,120.803z"/>
		<path style="fill:#080927;" d="M451.227,129.459c1.278,0,2.318,1.04,2.318,2.318c0,1.278-1.039,2.318-2.318,2.318
			c-1.278,0-2.318-1.04-2.318-2.318C448.909,130.498,449.949,129.459,451.227,129.459z"/>
		<path style="fill:#080927;" d="M451.227,94.6c1.278,0,2.318,1.04,2.318,2.318s-1.039,2.317-2.318,2.317
			c-1.278,0-2.318-1.039-2.318-2.317S449.949,94.6,451.227,94.6z"/>
		<path style="fill:#080927;" d="M442.395,77.485c1.278,0,2.318,1.04,2.318,2.318c0,1.278-1.04,2.318-2.318,2.318
			c-1.278,0-2.318-1.04-2.318-2.318C440.078,78.525,441.117,77.485,442.395,77.485z"/>
		<path style="fill:#080927;" d="M448.909,105.841c0-1.278,1.04-2.318,2.318-2.318c1.278,0,2.318,1.04,2.318,2.318
			c0,1.278-1.039,2.318-2.318,2.318C449.949,108.158,448.909,107.119,448.909,105.841z"/>
		<path style="fill:#080927;" d="M448.909,114.497c0-1.278,1.04-2.318,2.318-2.318c1.278,0,2.318,1.04,2.318,2.318
			s-1.039,2.318-2.318,2.318C449.949,116.814,448.909,115.775,448.909,114.497z"/>
		<path style="fill:#080927;" d="M451.227,77.485c1.278,0,2.318,1.04,2.318,2.318c0,1.278-1.039,2.318-2.318,2.318
			c-1.278,0-2.318-1.04-2.318-2.318C448.909,78.525,449.949,77.485,451.227,77.485z"/>
		<path style="fill:#080927;" d="M451.227,85.944c1.278,0,2.318,1.04,2.318,2.318c0,1.278-1.039,2.317-2.318,2.317
			c-1.278,0-2.318-1.04-2.318-2.317C448.909,86.984,449.949,85.944,451.227,85.944z"/>
		<path style="fill:#080927;" d="M405.143,79.803c0-1.278,1.04-2.318,2.318-2.318c1.278,0,2.318,1.04,2.318,2.318
			c0,1.278-1.04,2.318-2.318,2.318C406.183,82.12,405.143,81.081,405.143,79.803z"/>
		<path style="fill:#080927;" d="M424.772,82.12c-1.278,0-2.317-1.04-2.317-2.318c0-1.278,1.04-2.318,2.317-2.318
			c1.278,0,2.318,1.04,2.318,2.318C427.09,81.081,426.05,82.12,424.772,82.12z"/>
		<path style="fill:#080927;" d="M433.428,82.12c-1.278,0-2.318-1.04-2.318-2.318c0-1.278,1.04-2.318,2.318-2.318
			c1.278,0,2.318,1.04,2.318,2.318C435.746,81.081,434.706,82.12,433.428,82.12z"/>
		<path style="fill:#080927;" d="M413.799,79.803c0-1.278,1.039-2.318,2.317-2.318c1.278,0,2.318,1.04,2.318,2.318
			c0,1.278-1.039,2.318-2.318,2.318C414.839,82.12,413.799,81.081,413.799,79.803z"/>
		<path style="fill:#080927;" d="M387.832,79.803c0-1.278,1.04-2.318,2.318-2.318c1.278,0,2.318,1.04,2.318,2.318
			c0,1.278-1.039,2.318-2.318,2.318C388.871,82.12,387.832,81.081,387.832,79.803z"/>
		<path style="fill:#080927;" d="M396.487,79.803c0-1.278,1.04-2.318,2.318-2.318c1.278,0,2.318,1.04,2.318,2.318
			c0,1.278-1.04,2.318-2.318,2.318C397.527,82.12,396.487,81.081,396.487,79.803z"/>
		<path style="fill:#080927;" d="M442.395,216.22c1.278,0,2.318,1.04,2.318,2.318s-1.04,2.318-2.318,2.318
			c-1.278,0-2.318-1.04-2.318-2.318S441.117,216.22,442.395,216.22z"/>
		<path style="fill:#080927;" d="M442.395,320.025c1.278,0,2.318,1.04,2.318,2.318c0,1.278-1.04,2.318-2.318,2.318
			c-1.278,0-2.318-1.04-2.318-2.318C440.078,321.065,441.117,320.025,442.395,320.025z"/>
		<path style="fill:#080927;" d="M451.227,216.016c1.278,0,2.318,1.04,2.318,2.318c0,1.278-1.039,2.317-2.318,2.317
			c-1.278,0-2.318-1.04-2.318-2.317C448.909,217.056,449.949,216.016,451.227,216.016z"/>
		<path style="fill:#080927;" d="M448.909,261.612c0-1.278,1.04-2.318,2.318-2.318c1.278,0,2.318,1.04,2.318,2.318
			c0,1.278-1.039,2.318-2.318,2.318C449.949,263.93,448.909,262.89,448.909,261.612z"/>
		<path style="fill:#080927;" d="M448.909,270.268c0-1.278,1.04-2.318,2.318-2.318c1.278,0,2.318,1.04,2.318,2.318
			c0,1.278-1.039,2.318-2.318,2.318C449.949,272.586,448.909,271.546,448.909,270.268z"/>
		<path style="fill:#080927;" d="M451.227,250.639c1.278,0,2.318,1.04,2.318,2.318s-1.039,2.318-2.318,2.318
			c-1.278,0-2.318-1.04-2.318-2.318S449.949,250.639,451.227,250.639z"/>
		<path style="fill:#080927;" d="M448.909,235.645c0-1.278,1.04-2.318,2.318-2.318c1.278,0,2.318,1.04,2.318,2.318
			c0,1.278-1.039,2.318-2.318,2.318C449.949,237.963,448.909,236.923,448.909,235.645z"/>
		<path style="fill:#080927;" d="M448.909,244.301c0-1.278,1.04-2.318,2.318-2.318c1.278,0,2.318,1.04,2.318,2.318
			c0,1.278-1.039,2.318-2.318,2.318C449.949,246.618,448.909,245.579,448.909,244.301z"/>
		<path style="fill:#080927;" d="M451.227,224.672c1.278,0,2.318,1.04,2.318,2.318s-1.039,2.317-2.318,2.317
			c-1.278,0-2.318-1.039-2.318-2.317S449.949,224.672,451.227,224.672z"/>
		<path style="fill:#080927;" d="M451.227,198.705c1.278,0,2.318,1.039,2.318,2.317s-1.039,2.318-2.318,2.318
			c-1.278,0-2.318-1.04-2.318-2.318S449.949,198.705,451.227,198.705z"/>
		<path style="fill:#080927;" d="M451.227,207.36c1.278,0,2.318,1.04,2.318,2.317c0,1.278-1.039,2.318-2.318,2.318
			c-1.278,0-2.318-1.04-2.318-2.318C448.909,208.4,449.949,207.36,451.227,207.36z"/>
		<path style="fill:#080927;" d="M451.227,276.606c1.278,0,2.318,1.04,2.318,2.318c0,1.278-1.039,2.318-2.318,2.318
			c-1.278,0-2.318-1.04-2.318-2.318C448.909,277.646,449.949,276.606,451.227,276.606z"/>
		<path style="fill:#080927;" d="M448.909,322.202c0-1.278,1.04-2.318,2.318-2.318c1.278,0,2.318,1.04,2.318,2.318
			c0,1.278-1.039,2.318-2.318,2.318C449.949,324.52,448.909,323.48,448.909,322.202z"/>
		<path style="fill:#080927;" d="M451.227,311.229c1.278,0,2.318,1.04,2.318,2.318c0,1.278-1.039,2.318-2.318,2.318
			c-1.278,0-2.318-1.04-2.318-2.318C448.909,312.269,449.949,311.229,451.227,311.229z"/>
		<path style="fill:#080927;" d="M448.909,296.235c0-1.278,1.04-2.318,2.318-2.318c1.278,0,2.318,1.04,2.318,2.318
			c0,1.278-1.039,2.318-2.318,2.318C449.949,298.553,448.909,297.513,448.909,296.235z"/>
		<path style="fill:#080927;" d="M448.909,304.891c0-1.278,1.04-2.318,2.318-2.318c1.278,0,2.318,1.04,2.318,2.318
			c0,1.278-1.039,2.318-2.318,2.318C449.949,307.208,448.909,306.169,448.909,304.891z"/>
		<path style="fill:#080927;" d="M451.227,285.262c1.278,0,2.318,1.04,2.318,2.318c0,1.278-1.039,2.318-2.318,2.318
			c-1.278,0-2.318-1.04-2.318-2.318C448.909,286.302,449.949,285.262,451.227,285.262z"/>
	</g>
</g>
</svg>
